<svg width="400" height="400" viewBox="0 0 400 400" fill="none" xmlns="http://www.w3.org/2000/svg">
<rect width="400" height="400" rx="200" fill="#30475E"/>
<path d="M136.25 235.156H157.344L151.5 257L136.25 249.219V235.156Z" fill="white"/>
<path d="M151.858 291.406H123.458L106.58 207.031H134.98L151.858 291.406Z" fill="white"/>
<path d="M249.219 108.594C249.219 125.163 236.852 139.424 220.448 141.759L157.344 150.781L150.312 164.733V185.938V208.03L157.344 221.094L220.448 230.116C236.852 232.451 249.219 246.712 249.219 263.281L256.25 249.219V185.938V122.656L249.219 108.594Z" fill="#F3F5F9"/>
<path d="M157.344 221.094L220.448 230.116C236.852 232.451 249.219 246.712 249.219 263.281L256.25 249.219V185.938H150.312V208.03L157.344 221.094Z" fill="#E1E6F0"/>
<path d="M274.102 220.412L280.388 207.839L308.5 221.895L302.213 234.468L274.102 220.412Z" fill="#F05454"/>
<path d="M274.102 151.537L302.213 137.482L308.5 150.055L280.388 164.11L274.102 151.537Z" fill="#D80027"/>
<path d="M249.219 108.594V185.938V263.281H263.281V185.938V108.594H249.219Z" fill="#F05454"/>
<path d="M249.219 185.938H263.281V263.281H249.219V185.938Z" fill="#E64222"/>
<path d="M277.344 178.906V185.938V192.969H320V185.938V178.906H277.344Z" fill="#D80027"/>
<path d="M277.344 185.938H320V192.969H277.344V185.938Z" fill="#F05454"/>
<path d="M80 150.781V185.938V221.094H157.344V185.938V150.781H80Z" fill="#F05454"/>
<path d="M80 185.938H157.344V221.094H80V185.938Z" fill="#E64222"/>
</svg>
