<svg width="600" height="600" viewBox="0 0 600 600" fill="none" xmlns="http://www.w3.org/2000/svg">
<path d="M0 62.5V125H46H92.1L91.8 140.2L91.5 155.5L45.8 155.8L0 156V378V600H16.5H33V394.5V189H62.5H92V299.2V409.5L108.5 393L125 376.5V282.8V189H140.5H156V233.7V278.5L172.5 262L189 245.5V217.3V189H217.3H245.5L262 172.5L278.5 156H233.7H189V140.5V125H282.8H376.5L393 108.5L409.5 92H299.2H189V62.5V33H394.5H600V16.5V-8.9407e-06H378H156L155.8 45.7L155.5 91.5L140.3 91.8L125 92.1V46V-8.9407e-06H62.5H0V62.5ZM92 62.5V92H62.5H33V62.5V33H62.5H92V62.5ZM155.8 140.2L155.5 155.5L140.3 155.8L125 156.1V140.5V125H140.5H156.1L155.8 140.2Z" fill="#F05454"/>
</svg>
