<svg width="402" height="224" viewBox="0 0 402 224" fill="none" xmlns="http://www.w3.org/2000/svg">
<g clip-path="url(#clip0_1201_1897)">
<path d="M56.0164 182.231V170.201V129.299H0L39.541 167.795L0 206.291H95.5574V182.231H69.1967H56.0164Z" fill="url(#paint0_linear_1201_1897)"/>
<path d="M402 129.299H345.984V170.201V182.231H332.804H299.853V206.291H402L362.459 167.795L402 129.299Z" fill="url(#paint1_linear_1201_1897)"/>
<path d="M332.803 95.6147H69.1968V172.607H332.803V95.6147Z" fill="url(#paint2_linear_1201_1897)"/>
<path d="M126.642 137.798H129.609C129.609 139.884 129.088 141.486 128.045 142.605C127.002 143.725 125.53 144.284 123.629 144.284C119.443 144.284 117.35 141.823 117.35 136.901V135.521C117.35 131.642 118.423 129.212 120.57 128.23C121.413 127.832 122.433 127.632 123.629 127.632C125.377 127.632 126.795 128.115 127.884 129.081C128.988 130.032 129.54 131.412 129.54 133.221H126.55C126.381 132.317 126.082 131.634 125.653 131.174C125.224 130.714 124.549 130.484 123.629 130.484C122.556 130.484 121.758 130.822 121.237 131.496C120.869 131.972 120.654 132.784 120.593 133.934C120.562 134.302 120.547 134.801 120.547 135.429V136.855C120.547 138.619 120.792 139.822 121.283 140.466C121.789 141.11 122.571 141.432 123.629 141.432C124.702 141.432 125.438 141.141 125.837 140.558C126.251 139.96 126.519 139.04 126.642 137.798ZM134.978 144.146L131.988 144.169V126.85H134.978V144.146ZM147.228 144.146H145.227L144.307 142.559L141.11 144.284C139.332 144.284 138.136 143.64 137.522 142.352C137.216 141.724 137.001 141.049 136.878 140.328C136.771 139.592 136.717 138.833 136.717 138.051C136.717 137.254 136.725 136.671 136.74 136.303C136.756 135.92 136.794 135.483 136.855 134.992C136.917 134.486 137.001 134.065 137.108 133.727C137.231 133.39 137.4 133.045 137.614 132.692C137.829 132.324 138.09 132.033 138.396 131.818C139.086 131.343 139.983 131.105 141.087 131.105H144.238L147.228 130.921V144.146ZM144.238 139.96V133.796H141.961C141.118 133.796 140.528 134.118 140.19 134.762C139.868 135.406 139.707 136.372 139.707 137.66C139.707 138.933 139.861 139.83 140.167 140.351C140.489 140.873 141.087 141.133 141.961 141.133L144.238 139.96ZM159.492 140.512V140.857C159.4 142.007 158.909 142.874 158.02 143.456C157.146 144.039 156.049 144.33 154.731 144.33C152.783 144.33 151.419 143.978 150.637 143.272C149.916 142.628 149.556 141.678 149.556 140.42V140.144H152.27C152.27 140.85 152.454 141.333 152.822 141.593C153.19 141.854 153.826 141.984 154.731 141.984C155.957 141.984 156.571 141.54 156.571 140.65C156.571 139.914 156.356 139.424 155.927 139.178C155.727 139.056 155.474 138.964 155.168 138.902L152.845 138.511C150.821 138.189 149.809 136.924 149.809 134.716C149.809 133.49 150.253 132.539 151.143 131.864C152.047 131.174 153.19 130.829 154.57 130.829C157.713 130.829 159.285 132.186 159.285 134.9V135.199H156.686C156.655 134.479 156.463 133.988 156.111 133.727C155.758 133.467 155.26 133.336 154.616 133.336C153.987 133.336 153.512 133.467 153.19 133.727C152.868 133.973 152.707 134.249 152.707 134.555C152.707 135.429 153.059 135.928 153.765 136.05L156.548 136.556C158.51 136.924 159.492 138.243 159.492 140.512ZM171.014 140.512V140.857C170.922 142.007 170.431 142.874 169.542 143.456C168.668 144.039 167.572 144.33 166.253 144.33C164.306 144.33 162.941 143.978 162.159 143.272C161.438 142.628 161.078 141.678 161.078 140.42V140.144H163.792C163.792 140.85 163.976 141.333 164.344 141.593C164.712 141.854 165.348 141.984 166.253 141.984C167.48 141.984 168.093 141.54 168.093 140.65C168.093 139.914 167.878 139.424 167.449 139.178C167.25 139.056 166.997 138.964 166.69 138.902L164.367 138.511C162.343 138.189 161.331 136.924 161.331 134.716C161.331 133.49 161.776 132.539 162.665 131.864C163.57 131.174 164.712 130.829 166.092 130.829C169.235 130.829 170.807 132.186 170.807 134.9V135.199H168.208C168.177 134.479 167.986 133.988 167.633 133.727C167.28 133.467 166.782 133.336 166.138 133.336C165.509 133.336 165.034 133.467 164.712 133.727C164.39 133.973 164.229 134.249 164.229 134.555C164.229 135.429 164.582 135.928 165.287 136.05L168.07 136.556C170.033 136.924 171.014 138.243 171.014 140.512ZM175.039 125.999C175.759 125.999 176.227 126.114 176.442 126.344C176.656 126.559 176.764 127.027 176.764 127.747C176.764 128.453 176.649 128.92 176.419 129.15C176.204 129.365 175.736 129.472 175.016 129.472C174.31 129.472 173.843 129.357 173.613 129.127C173.398 128.897 173.291 128.43 173.291 127.724C173.291 127.019 173.398 126.559 173.613 126.344C173.843 126.114 174.318 125.999 175.039 125.999ZM176.511 144.146H173.521V131.496H176.511V144.146ZM186.571 139.339L189.285 139.316C189.269 139.439 189.254 139.661 189.239 139.983C189.223 140.305 189.208 140.528 189.193 140.65C189.193 140.758 189.177 140.934 189.147 141.179C189.116 141.425 189.078 141.609 189.032 141.731C189.001 141.839 188.955 141.984 188.894 142.168C188.618 142.966 187.866 143.594 186.64 144.054C185.858 144.33 185.037 144.468 184.179 144.468C183.335 144.468 182.569 144.33 181.879 144.054C181.189 143.778 180.644 143.426 180.246 142.996C179.341 142.046 178.889 140.267 178.889 137.66C178.889 135.038 179.341 133.252 180.246 132.301C180.644 131.872 181.189 131.519 181.879 131.243C182.569 130.967 183.335 130.829 184.179 130.829C185.835 130.829 187.092 131.243 187.951 132.071C188.809 132.899 189.239 134.049 189.239 135.521H186.525C186.525 134.847 186.356 134.348 186.019 134.026C185.681 133.689 185.053 133.52 184.133 133.52C183.228 133.52 182.622 133.804 182.316 134.371C182.024 134.939 181.879 135.79 181.879 136.924V138.12C181.879 139.945 182.231 141.064 182.937 141.478C183.259 141.678 183.68 141.777 184.202 141.777C184.723 141.777 185.145 141.731 185.467 141.639C185.804 141.532 186.042 141.356 186.18 141.11C186.333 140.865 186.433 140.627 186.479 140.397C186.525 140.152 186.555 139.799 186.571 139.339ZM209.455 134.371L206.511 140.581C206.082 141.409 205.545 141.823 204.901 141.823C204.272 141.823 203.743 141.386 203.314 140.512L200.324 134.371V144.146H197.127V127.77H200.278L204.901 137.223L209.501 127.77H212.652V144.146H209.455V134.371ZM225.614 138.281H217.955C217.955 139.477 218.139 140.351 218.507 140.903C218.89 141.455 219.649 141.731 220.784 141.731C221.52 141.731 222.064 141.501 222.417 141.041C222.769 140.566 222.946 140.114 222.946 139.684H225.637C225.637 141.325 225.192 142.529 224.303 143.295C223.429 144.062 222.263 144.445 220.807 144.445C219.365 144.445 218.246 144.238 217.449 143.824C215.808 142.981 214.988 140.742 214.988 137.108C214.988 134.946 215.455 133.367 216.391 132.37C217.326 131.358 218.752 130.852 220.669 130.852C223.996 130.852 225.66 132.7 225.66 136.395C225.66 136.794 225.644 137.423 225.614 138.281ZM218.024 136.234H222.946C222.946 135.222 222.754 134.486 222.371 134.026C221.987 133.566 221.397 133.336 220.6 133.336C219.818 133.336 219.189 133.574 218.714 134.049C218.254 134.509 218.024 135.238 218.024 136.234ZM245.298 144.146H242.308V135.981C242.308 135.169 242.208 134.601 242.009 134.279C241.825 133.957 241.495 133.796 241.02 133.796L238.329 134.923V144.146H235.339V135.981C235.339 134.525 234.833 133.796 233.821 133.796L231.36 134.923V144.146H228.37V131.013H230.601L231.291 132.577L234.741 130.875C235.937 130.875 236.842 131.458 237.455 132.623L241.733 130.875C242.929 130.875 243.818 131.282 244.401 132.094C244.999 132.892 245.298 133.973 245.298 135.337V144.146ZM254.13 144.169L251.531 144.146C250.381 144.146 249.507 143.809 248.909 143.134C248.326 142.46 248.035 141.655 248.035 140.719V126.85H251.025V132.646L254.59 130.99C255.954 130.99 256.959 131.358 257.603 132.094C258.17 132.754 258.523 133.819 258.661 135.291C258.707 135.905 258.73 136.664 258.73 137.568C258.73 141.969 257.196 144.169 254.13 144.169ZM251.784 141.593H253.256C254.912 141.593 255.74 140.252 255.74 137.568C255.74 136.204 255.609 135.253 255.349 134.716C255.103 134.18 254.559 133.911 253.716 133.911L251.025 135.36V140.535C251.025 141.149 251.278 141.501 251.784 141.593ZM271.232 138.281H263.573C263.573 139.477 263.757 140.351 264.125 140.903C264.508 141.455 265.267 141.731 266.402 141.731C267.138 141.731 267.682 141.501 268.035 141.041C268.387 140.566 268.564 140.114 268.564 139.684H271.255C271.255 141.325 270.81 142.529 269.921 143.295C269.047 144.062 267.881 144.445 266.425 144.445C264.983 144.445 263.864 144.238 263.067 143.824C261.426 142.981 260.606 140.742 260.606 137.108C260.606 134.946 261.073 133.367 262.009 132.37C262.944 131.358 264.37 130.852 266.287 130.852C269.614 130.852 271.278 132.7 271.278 136.395C271.278 136.794 271.262 137.423 271.232 138.281ZM263.642 136.234H268.564C268.564 135.222 268.372 134.486 267.989 134.026C267.605 133.566 267.015 133.336 266.218 133.336C265.436 133.336 264.807 133.574 264.332 134.049C263.872 134.509 263.642 135.238 263.642 136.234ZM280.957 131.059L280.129 134.003C279.899 133.911 279.639 133.865 279.347 133.865C278.581 133.865 277.638 134.195 276.518 134.854V144.146H273.528V131.013H275.759L276.449 132.163L279.623 130.852C279.777 130.837 279.984 130.829 280.244 130.829C280.505 130.829 280.743 130.906 280.957 131.059Z" fill="black"/>
</g>
<defs>
<linearGradient id="paint0_linear_1201_1897" x1="-1.29605" y1="71.9959" x2="31.2887" y2="227.251" gradientUnits="userSpaceOnUse">
<stop stop-color="#E5E5E5"/>
<stop offset="1" stop-color="#E0E0E0"/>
</linearGradient>
<linearGradient id="paint1_linear_1201_1897" x1="298.467" y1="71.9959" x2="329.111" y2="228.073" gradientUnits="userSpaceOnUse">
<stop stop-color="#E5E5E5"/>
<stop offset="1" stop-color="#E0E0E0"/>
</linearGradient>
<linearGradient id="paint2_linear_1201_1897" x1="65.6215" y1="38.3116" x2="77.8828" y2="199.472" gradientUnits="userSpaceOnUse">
<stop stop-color="#E5E5E5"/>
<stop offset="1" stop-color="#E0E0E0"/>
</linearGradient>
<clipPath id="clip0_1201_1897">
<rect width="402" height="224" fill="white"/>
</clipPath>
</defs>
</svg>
