<svg width="400" height="400" viewBox="0 0 400 400" fill="none" xmlns="http://www.w3.org/2000/svg">
<path d="M200 400C89.7167 400 0 310.283 0 200C0 89.7167 89.7167 0 200 0C310.283 0 400 89.7167 400 200C400 310.283 310.283 400 200 400ZM200 16.6667C98.9167 16.6667 16.6667 98.9167 16.6667 200C16.6667 301.083 98.9167 383.333 200 383.333C301.083 383.333 383.333 301.083 383.333 200C383.333 98.9167 301.083 16.6667 200 16.6667Z" fill="#F05454"/>
<path d="M289.5 283.333H110.5C106.433 283.333 102.967 280.4 102.283 276.4L83.45 165.283C82.9333 162.183 84.1833 159.067 86.6833 157.2C89.1833 155.333 92.5166 155 95.35 156.417L149.433 183.083L192.7 104.317C195.617 99.0168 204.383 99.0168 207.3 104.317L250.567 183.083L304.65 156.417C307.467 155 310.817 155.333 313.317 157.2C315.817 159.067 317.083 162.2 316.55 165.283L297.717 276.4C297.033 280.4 293.55 283.333 289.5 283.333ZM117.55 266.667H282.467L297.4 178.567L250.8 201.55C246.783 203.55 241.95 202 239.817 198.1L200 125.633L160.2 198.1C158.067 202 153.25 203.55 149.217 201.55L102.617 178.567L117.55 266.667Z" fill="#F05454"/>
</svg>
