<svg width="400" height="400" viewBox="0 0 400 400" fill="none" xmlns="http://www.w3.org/2000/svg">
<g clip-path="url(#clip0)">
<path d="M1.26602 36.693L27.9428 83.3747C28.8427 84.9521 30.3488 86.0934 32.11 86.5351L56.9982 92.7571L142.359 178.118L151.791 168.689L65.0939 81.9948C64.2407 81.1388 63.1708 80.5325 61.9994 80.239L38.0852 74.2392L15.3726 34.4709L34.8452 14.9982L74.63 37.7328L80.6325 61.647C80.9233 62.8211 81.5324 63.8938 82.3856 64.747L169.082 151.444L178.512 142.012L93.1507 56.6512L86.9286 31.7768C86.487 30.0128 85.3457 28.504 83.7682 27.6014L37.0838 0.927333C34.4803 -0.554101 31.2047 -0.115158 29.0813 2L2.40727 28.6768C0.261936 30.7865 -0.204441 34.0676 1.26602 36.693V36.693Z" fill="#F05454"/>
<path d="M278.527 131.433L131.813 278.15L122.381 268.718L269.098 122.004L278.527 131.433Z" fill="#F05454"/>
<path d="M106.135 283.341C104.928 281.333 102.761 280.106 100.418 280.106H60.4052C58.0651 280.106 55.8951 281.333 54.6907 283.341L34.6831 316.684C33.4129 318.797 33.4129 321.438 34.6831 323.554L54.6907 356.897C55.8951 358.902 58.0651 360.131 60.4052 360.131H100.418C102.761 360.131 104.928 358.902 106.135 356.897L126.14 323.554C127.41 321.438 127.41 318.797 126.14 316.684L106.135 283.341ZM96.6455 346.793H64.1801L48.1751 320.119L64.1801 293.442H96.6455L112.651 320.119L96.6455 346.793Z" fill="#F05454"/>
<path d="M320.49 160.066C364.535 160.214 400.364 124.627 400.512 80.5817C400.534 73.8768 399.711 67.1994 398.062 60.7003C397.173 57.1256 393.555 54.9501 389.98 55.839C388.806 56.1325 387.736 56.7388 386.88 57.592L345.367 99.0777L312.43 88.1013L301.445 55.1723L342.958 13.651C345.562 11.0448 345.559 6.82268 342.953 4.21919C342.094 3.36051 341.013 2.75148 339.831 2.46067C297.116 -8.35654 253.724 17.5 242.907 60.212C241.263 66.6919 240.443 73.3528 240.465 80.0385C240.482 85.2894 241.022 90.5238 242.086 95.6649L96.0361 241.712C90.895 240.651 85.6606 240.11 80.4124 240.091C36.2136 240.091 0.384766 275.92 0.384766 320.119C0.384766 364.315 36.2136 400.144 80.4124 400.144C124.609 400.144 160.437 364.315 160.437 320.119C160.421 314.868 159.878 309.633 158.816 304.492L193.781 269.528L209.072 284.819C211.679 287.423 215.898 287.423 218.504 284.819L221.837 281.483C224.762 278.578 229.489 278.578 232.413 281.483C235.335 284.397 235.34 289.127 232.427 292.048C232.424 292.051 232.419 292.057 232.413 292.062L229.08 295.395C226.476 297.999 226.476 302.221 229.08 304.824L308.633 384.377C329.557 405.493 363.635 405.647 384.751 384.723C405.865 363.799 406.018 329.718 385.094 308.605C384.982 308.49 384.867 308.374 384.751 308.259L305.198 228.709C302.595 226.105 298.373 226.105 295.769 228.709L292.436 232.042C289.509 234.95 284.785 234.95 281.857 232.042C278.938 229.128 278.93 224.399 281.844 221.48C281.849 221.474 281.855 221.472 281.857 221.466L285.193 218.13C287.797 215.527 287.797 211.305 285.193 208.701L269.902 193.409L304.866 158.445C310.007 159.507 315.242 160.05 320.49 160.066V160.066ZM346.692 386.808C341.847 386.8 337.044 385.925 332.509 384.221L384.592 332.135C392.452 353.042 381.876 376.361 360.969 384.221C356.407 385.936 351.57 386.814 346.692 386.808ZM271.142 213.483C263.757 222.292 264.914 235.422 273.723 242.804C281.465 249.292 292.749 249.287 300.482 242.785L375.322 317.691C376.134 318.506 376.894 319.364 377.629 320.237L320.611 377.256C319.736 376.523 318.877 375.763 318.062 374.948L243.165 300.045C250.55 291.236 249.392 278.106 240.583 270.724C232.841 264.233 221.555 264.241 213.821 270.74L203.152 260.071L260.47 202.838L271.142 213.483ZM298.071 146.41L146.786 297.664C145.126 299.321 144.46 301.727 145.025 304.001C154.174 339.932 132.463 376.476 96.5299 385.623C60.5996 394.772 24.0548 373.061 14.9056 337.128C5.75908 301.198 27.4703 264.653 63.4034 255.504C74.2727 252.738 85.6606 252.738 96.5299 255.504C98.8042 256.06 101.205 255.394 102.867 253.745L254.116 102.488C255.773 100.831 256.44 98.4248 255.869 96.1532C246.783 60.6427 268.204 24.4902 303.714 15.4013C310.424 13.6867 317.365 13.0282 324.279 13.459L289.1 48.6513C287.314 50.4345 286.689 53.0764 287.487 55.4714L300.823 95.4866C301.489 97.4755 303.053 99.0393 305.045 99.7004L345.06 113.039C347.452 113.837 350.094 113.214 351.88 111.431L387.059 76.2526C387.138 77.5255 387.179 78.7848 387.179 80.0385C387.366 116.682 357.814 146.538 321.17 146.728C315.505 146.755 309.859 146.058 304.373 144.654C302.098 144.086 299.692 144.75 298.035 146.407H298.071V146.41Z" fill="#F05454"/>
<path d="M345.22 335.408L335.788 344.84L269.102 278.153L278.531 268.722L345.22 335.408Z" fill="#F05454"/>
</g>
<defs>
<clipPath id="clip0">
<rect width="400" height="400" fill="white"/>
</clipPath>
</defs>
</svg>
