<svg width="402" height="224" viewBox="0 0 402 224" fill="none" xmlns="http://www.w3.org/2000/svg">
<g clip-path="url(#clip0)">
<path d="M57.0164 198.298C56.4641 198.298 56.0164 197.85 56.0164 197.298V186.268V146.366C56.0164 145.814 55.5687 145.366 55.0164 145.366H2.46068C1.5633 145.366 1.12012 146.456 1.7631 147.082L38.805 183.146C39.2083 183.538 39.2083 184.186 38.805 184.579L1.7631 220.642C1.12012 221.268 1.5633 222.358 2.46067 222.358H94.5574C95.1097 222.358 95.5574 221.911 95.5574 221.358V199.298C95.5574 198.746 95.1097 198.298 94.5574 198.298H69.1967H57.0164Z" fill="url(#paint0_linear)"/>
<path d="M400.237 147.082C400.88 146.456 400.437 145.366 399.54 145.366H346.984C346.432 145.366 345.984 145.814 345.984 146.366V186.268V197.298C345.984 197.85 345.536 198.298 344.984 198.298H332.804H300.853C300.3 198.298 299.853 198.746 299.853 199.298V221.358C299.853 221.911 300.3 222.358 300.853 222.358H399.54C400.437 222.358 400.88 221.268 400.237 220.642L363.195 184.579C362.792 184.186 362.792 183.538 363.195 183.146L400.237 147.082Z" fill="url(#paint1_linear)"/>
<path d="M331.803 111.682H70.1968C69.6445 111.682 69.1968 112.129 69.1968 112.682V187.674C69.1968 188.226 69.6445 188.674 70.1968 188.674H331.803C332.356 188.674 332.803 188.226 332.803 187.674V112.682C332.803 112.129 332.356 111.682 331.803 111.682Z" fill="url(#paint2_linear)"/>
<path d="M137.552 161.213H131.252C129.252 161.213 127.844 160.872 127.027 160.188C126.227 159.488 125.827 158.263 125.827 156.513V143.413H137.552V146.513H129.302V150.688H135.077L134.827 153.788H129.302V156.263C129.302 156.963 129.461 157.447 129.777 157.713C130.094 157.98 130.669 158.113 131.502 158.113H137.552V161.213ZM143.839 161.213L140.589 161.238V142.413H143.839V161.213ZM148.98 141.488C149.763 141.488 150.272 141.613 150.505 141.863C150.738 142.097 150.855 142.605 150.855 143.388C150.855 144.155 150.73 144.663 150.48 144.913C150.247 145.147 149.738 145.263 148.955 145.263C148.188 145.263 147.68 145.138 147.43 144.888C147.197 144.638 147.08 144.13 147.08 143.363C147.08 142.597 147.197 142.097 147.43 141.863C147.68 141.613 148.197 141.488 148.98 141.488ZM150.58 161.213H147.33V147.463H150.58V161.213ZM160.315 161.213H158.29C157.057 161.213 156.115 160.847 155.465 160.113C154.832 159.38 154.515 158.505 154.515 157.488V149.988H153.14V147.513H154.515V144.713H157.765V147.513H160.065V149.988H157.765V157.288C157.765 158.072 158.14 158.463 158.89 158.463H160.315V161.213ZM173.704 154.838H165.379C165.379 156.138 165.579 157.088 165.979 157.688C166.396 158.288 167.221 158.588 168.454 158.588C169.254 158.588 169.846 158.338 170.229 157.838C170.612 157.322 170.804 156.83 170.804 156.363H173.729C173.729 158.147 173.246 159.455 172.279 160.288C171.329 161.122 170.062 161.538 168.479 161.538C166.912 161.538 165.696 161.313 164.829 160.863C163.046 159.947 162.154 157.513 162.154 153.563C162.154 151.213 162.662 149.497 163.679 148.413C164.696 147.313 166.246 146.763 168.329 146.763C171.946 146.763 173.754 148.772 173.754 152.788C173.754 153.222 173.737 153.905 173.704 154.838ZM165.454 152.613H170.804C170.804 151.513 170.596 150.713 170.179 150.213C169.762 149.713 169.121 149.463 168.254 149.463C167.404 149.463 166.721 149.722 166.204 150.238C165.704 150.738 165.454 151.53 165.454 152.613ZM195.911 150.588L192.711 157.338C192.244 158.238 191.661 158.688 190.961 158.688C190.277 158.688 189.702 158.213 189.236 157.263L185.986 150.588V161.213H182.511V143.413H185.936L190.961 153.688L195.961 143.413H199.386V161.213H195.911V150.588ZM213.474 154.838H205.149C205.149 156.138 205.349 157.088 205.749 157.688C206.166 158.288 206.991 158.588 208.224 158.588C209.024 158.588 209.616 158.338 209.999 157.838C210.383 157.322 210.574 156.83 210.574 156.363H213.499C213.499 158.147 213.016 159.455 212.049 160.288C211.099 161.122 209.833 161.538 208.249 161.538C206.683 161.538 205.466 161.313 204.599 160.863C202.816 159.947 201.924 157.513 201.924 153.563C201.924 151.213 202.433 149.497 203.449 148.413C204.466 147.313 206.016 146.763 208.099 146.763C211.716 146.763 213.524 148.772 213.524 152.788C213.524 153.222 213.508 153.905 213.474 154.838ZM205.224 152.613H210.574C210.574 151.513 210.366 150.713 209.949 150.213C209.533 149.713 208.891 149.463 208.024 149.463C207.174 149.463 206.491 149.722 205.974 150.238C205.474 150.738 205.224 151.53 205.224 152.613ZM234.871 161.213H231.621V152.338C231.621 151.455 231.512 150.838 231.296 150.488C231.096 150.138 230.737 149.963 230.221 149.963L227.296 151.188V161.213H224.046V152.338C224.046 150.755 223.496 149.963 222.396 149.963L219.721 151.188V161.213H216.471V146.938H218.896L219.646 148.638L223.396 146.788C224.696 146.788 225.679 147.422 226.346 148.688L230.996 146.788C232.296 146.788 233.262 147.23 233.896 148.113C234.546 148.98 234.871 150.155 234.871 151.638V161.213ZM244.47 161.238L241.645 161.213C240.395 161.213 239.445 160.847 238.795 160.113C238.162 159.38 237.845 158.505 237.845 157.488V142.413H241.095V148.713L244.97 146.913C246.453 146.913 247.545 147.313 248.245 148.113C248.862 148.83 249.245 149.988 249.395 151.588C249.445 152.255 249.47 153.08 249.47 154.063C249.47 158.847 247.803 161.238 244.47 161.238ZM241.92 158.438H243.52C245.32 158.438 246.22 156.98 246.22 154.063C246.22 152.58 246.078 151.547 245.795 150.963C245.528 150.38 244.937 150.088 244.02 150.088L241.095 151.663V157.288C241.095 157.955 241.37 158.338 241.92 158.438ZM263.059 154.838H254.734C254.734 156.138 254.934 157.088 255.334 157.688C255.751 158.288 256.576 158.588 257.809 158.588C258.609 158.588 259.201 158.338 259.584 157.838C259.968 157.322 260.159 156.83 260.159 156.363H263.084C263.084 158.147 262.601 159.455 261.634 160.288C260.684 161.122 259.418 161.538 257.834 161.538C256.268 161.538 255.051 161.313 254.184 160.863C252.401 159.947 251.509 157.513 251.509 153.563C251.509 151.213 252.018 149.497 253.034 148.413C254.051 147.313 255.601 146.763 257.684 146.763C261.301 146.763 263.109 148.772 263.109 152.788C263.109 153.222 263.093 153.905 263.059 154.838ZM254.809 152.613H260.159C260.159 151.513 259.951 150.713 259.534 150.213C259.118 149.713 258.476 149.463 257.609 149.463C256.759 149.463 256.076 149.722 255.559 150.238C255.059 150.738 254.809 151.53 254.809 152.613ZM273.631 146.988L272.731 150.188C272.481 150.088 272.197 150.038 271.881 150.038C271.047 150.038 270.022 150.397 268.806 151.113V161.213H265.556V146.938H267.981L268.731 148.188L272.181 146.763C272.347 146.747 272.572 146.738 272.856 146.738C273.139 146.738 273.397 146.822 273.631 146.988Z" fill="black"/>
<path d="M137.241 34.0669L146.358 48.6781L163.12 52.8029L151.992 65.958L153.235 83.1185L137.241 76.6375L121.247 83.1185L122.49 65.958L111.362 52.8029L128.124 48.6781L137.241 34.0669Z" fill="url(#paint3_linear)"/>
<path d="M201 -0.466553L214.933 21.8638L240.551 28.1678L223.544 48.2727L225.444 74.4991L201 64.5943L176.556 74.4991L178.456 48.2727L161.449 28.1678L187.067 21.8638L201 -0.466553Z" fill="url(#paint4_linear)"/>
<path d="M266.332 34.0669L275.448 48.6781L292.211 52.8029L281.083 65.958L282.326 83.1185L266.332 76.6375L250.338 83.1185L251.581 65.958L240.453 52.8029L257.215 48.6781L266.332 34.0669Z" fill="url(#paint5_linear)"/>
</g>
<defs>
<linearGradient id="paint0_linear" x1="47.7787" y1="169.864" x2="47.7787" y2="239.857" gradientUnits="userSpaceOnUse">
<stop stop-color="#FFD15F"/>
<stop offset="1" stop-color="#A2790D"/>
</linearGradient>
<linearGradient id="paint1_linear" x1="350.927" y1="169.864" x2="350.927" y2="239.857" gradientUnits="userSpaceOnUse">
<stop stop-color="#FFD15F"/>
<stop offset="1" stop-color="#A2790D"/>
</linearGradient>
<linearGradient id="paint2_linear" x1="201" y1="136.179" x2="201" y2="206.172" gradientUnits="userSpaceOnUse">
<stop stop-color="#FFD15F"/>
<stop offset="1" stop-color="#A2790D"/>
</linearGradient>
<linearGradient id="paint3_linear" x1="137.241" y1="51.3219" x2="137.241" y2="100.622" gradientUnits="userSpaceOnUse">
<stop stop-color="#FFD15F"/>
<stop offset="1" stop-color="#A2790D"/>
</linearGradient>
<linearGradient id="paint4_linear" x1="201" y1="25.9044" x2="201" y2="101.25" gradientUnits="userSpaceOnUse">
<stop stop-color="#FFD15F"/>
<stop offset="1" stop-color="#A2790D"/>
</linearGradient>
<linearGradient id="paint5_linear" x1="266.332" y1="51.3219" x2="266.332" y2="100.622" gradientUnits="userSpaceOnUse">
<stop stop-color="#FFD15F"/>
<stop offset="1" stop-color="#A2790D"/>
</linearGradient>
<clipPath id="clip0">
<rect width="402" height="224" fill="white"/>
</clipPath>
</defs>
</svg>
