<svg width="400" height="400" viewBox="0 0 400 400" fill="none" xmlns="http://www.w3.org/2000/svg">
<g clip-path="url(#clip0)">
<path d="M269.64 104.349H130.358C116.014 104.349 104.348 116.016 104.348 130.355V269.647C104.348 283.985 116.015 295.653 130.358 295.653H269.64C283.984 295.653 295.651 283.985 295.651 269.647V130.355C295.652 116.015 283.984 104.349 269.64 104.349ZM278.26 269.647C278.26 274.399 274.397 278.262 269.64 278.262H130.358C125.602 278.262 121.739 274.399 121.739 269.647V130.355C121.739 125.603 125.602 121.739 130.358 121.739H269.64C274.397 121.739 278.26 125.603 278.26 130.354V269.647Z" fill="#F05454"/>
<path d="M101.739 89.2293L29.7388 17.6265H59.9133C64.6874 17.6265 68.5661 13.6804 68.5661 8.81326C68.5661 3.94616 64.6874 0 59.9133 0H8.65148C3.87865 0.00127378 0 3.94616 0 8.81453V60.8406C0 65.7077 3.87865 69.6539 8.65148 69.6539C13.4345 69.6539 17.3042 65.7077 17.3042 60.8406V29.8993L89.6522 101.841C93.0697 105.241 98.5482 105.176 101.887 101.693C105.225 98.2107 105.157 92.629 101.739 89.2293Z" fill="#F05454"/>
<path d="M391.347 0.00292969H340.086C335.312 0.00292969 331.435 3.94909 331.435 8.81618C331.435 13.6833 335.313 17.6294 340.086 17.6294H370.261L298.26 89.2297C294.843 92.6294 294.774 98.2098 298.113 101.692C301.451 105.175 306.93 105.24 310.347 101.84L382.695 29.8984V60.8423C382.695 65.7094 386.565 69.6555 391.348 69.6555C396.122 69.6555 400.001 65.7094 400.001 60.8423V8.81618C399.999 3.94909 396.121 0.00292969 391.347 0.00292969Z" fill="#F05454"/>
<path d="M101.887 298.309C98.5482 294.824 93.0697 294.759 89.6522 298.159L17.3042 370.1V339.159C17.3042 334.292 13.4345 330.346 8.65148 330.346C3.87737 330.346 0 334.292 0 339.159V391.185C0 396.052 3.87865 399.998 8.65148 399.998H59.912C64.6862 399.998 68.5648 396.052 68.5648 391.185C68.5648 386.318 64.6862 382.372 59.912 382.372H29.7388L101.739 310.772C105.157 307.372 105.225 301.791 101.887 298.309Z" fill="#F05454"/>
<path d="M391.348 330.346C386.565 330.346 382.695 334.292 382.695 339.159V370.1L310.347 298.159C306.93 294.759 301.451 294.824 298.113 298.309C294.774 301.791 294.843 307.372 298.26 310.772L370.261 382.372H340.086C335.312 382.372 331.435 386.318 331.435 391.185C331.435 396.052 335.313 399.998 340.086 399.998H391.347C396.121 399.998 399.999 396.052 399.999 391.185V339.159C400.001 334.292 396.122 330.346 391.348 330.346Z" fill="#F05454"/>
</g>
<defs>
<clipPath id="clip0">
<rect width="400" height="400" fill="white"/>
</clipPath>
</defs>
</svg>
