<svg width="512" height="512" viewBox="0 0 512 512" fill="none" xmlns="http://www.w3.org/2000/svg">
<path d="M110.185 139.581C110.155 139.581 110.123 139.581 110.092 139.581C105.765 139.541 101.305 136.929 97.1955 132.026C93.6465 127.794 87.3405 127.239 83.1075 130.787C78.8755 134.335 78.3195 140.642 81.8675 144.875C87.1545 151.182 93.3855 155.598 100.002 157.853V170C100.002 175.523 104.48 180 110.002 180C115.524 180 120.002 175.523 120.002 170V157.939C131.55 153.946 140.172 142.915 140.172 129.58C140.172 113.038 126.714 99.58 110.172 99.58C104.658 99.58 100.172 95.094 100.172 89.58C100.172 84.111 104.618 79.624 110.072 79.58C113.666 79.509 117.429 81.362 120.987 84.806C124.958 88.647 131.286 88.544 135.128 84.575C138.969 80.607 138.865 74.276 134.898 70.435C129.764 65.466 124.629 62.677 120.002 61.171V50C120.002 44.477 115.524 40 110.002 40C104.48 40 100.002 44.477 100.002 50V61.369C88.4605 65.558 80.1705 76.65 80.1705 89.58C80.1705 106.122 93.6285 119.58 110.171 119.58C115.685 119.58 120.171 124.066 120.171 129.58C120.171 135.076 115.723 139.581 110.185 139.581V139.581Z" fill="black"/>
<path d="M110 220C170.654 220 220 170.654 220 110C220 96.276 217.411 82.64 212.456 69.932C225.996 67.483 241.961 66 256 66C352.535 66 436.394 138.951 450.056 229.914L429.071 208.929C425.165 205.024 418.835 205.024 414.928 208.929C411.023 212.834 411.023 219.166 414.928 223.072L454.928 263.072C458.834 266.977 465.164 266.977 469.071 263.072L509.071 223.072C512.976 219.167 512.976 212.835 509.071 208.929C505.165 205.024 498.835 205.024 494.928 208.929L470.696 233.162C458.789 128.831 365.349 46 256 46C238.572 46 219.026 48.022 203.099 51.382C183.02 19.504 148.021 0 110 0C49.346 0 0 49.346 0 110C0 170.654 49.346 220 110 220V220ZM110 20C159.642 20 200 60.203 200 110C200 159.626 159.626 200 110 200C60.374 200 20 159.626 20 110C20 60.374 60.374 20 110 20Z" fill="black"/>
<path d="M422 432H462C467.522 432 472 427.523 472 422C472 416.477 467.522 412 462 412H422C416.478 412 412 416.477 412 422C412 427.523 416.478 432 422 432Z" fill="black"/>
<path d="M422 472H462C467.522 472 472 467.523 472 462C472 456.477 467.522 452 462 452H422C416.478 452 412 456.477 412 462C412 467.523 416.478 472 422 472Z" fill="black"/>
<path d="M17.0718 303.072L41.3107 278.833C53.2557 383.397 146.882 466 256 466C266.084 466 279.766 465.282 292 463.725V502C292 507.523 296.478 512 302 512H357C362.522 512 367 507.523 367 502C367 496.477 362.522 492 357 492H312C312 468.224 312 326.112 312 306H372V356C372 361.523 376.478 366 382 366H422C427.522 366 432 361.523 432 356V306H492V492H447C441.478 492 437 496.477 437 502C437 507.523 441.478 512 447 512H502C507.522 512 512 507.523 512 502V296C512 290.477 507.522 286 502 286H302C296.478 286 292 290.477 292 296V443.548C280.093 445.222 265.832 446 256 446C158.056 446 75.2277 374.192 61.8847 282.027L82.9287 303.071C86.8347 306.976 93.1647 306.976 97.0717 303.071C100.977 299.166 100.977 292.834 97.0717 288.928L57.0717 248.928C53.1657 245.023 46.8357 245.023 42.9287 248.928L2.92875 288.928C-0.97625 292.833 -0.97625 299.165 2.92875 303.071C6.83475 306.977 13.1648 306.977 17.0718 303.072V303.072ZM392 306H412V346H392V306Z" fill="black"/>
<path d="M402 512C407.523 512 412 507.523 412 502C412 496.477 407.523 492 402 492C396.477 492 392 496.477 392 502C392 507.523 396.477 512 402 512Z" fill="black"/>
</svg>
