<svg width="402" height="224" viewBox="0 0 402 224" fill="none" xmlns="http://www.w3.org/2000/svg">
<g clip-path="url(#clip0)">
<path d="M56.0164 182.231V170.201V129.299H0L39.541 167.795L0 206.291H95.5574V182.231H69.1967H56.0164Z" fill="url(#paint0_linear)"/>
<path d="M402 129.299H345.984V170.201V182.231H332.804H299.853V206.291H402L362.459 167.795L402 129.299Z" fill="url(#paint1_linear)"/>
<path d="M332.803 95.6147H69.1968V172.607H332.803V95.6147Z" fill="url(#paint2_linear)"/>
<path d="M142.109 130.622H136.336C135.661 130.622 135.186 130.753 134.91 131.013C134.649 131.274 134.519 131.726 134.519 132.37V134.647H140.522L140.292 137.499H134.519V144.146H131.322V131.105C131.322 129.894 131.583 129.035 132.104 128.529C132.641 128.023 133.553 127.77 134.841 127.77H142.109V130.622ZM151.627 131.059L150.799 134.003C150.569 133.911 150.309 133.865 150.017 133.865C149.251 133.865 148.308 134.195 147.188 134.854V144.146H144.198V131.013H146.429L147.119 132.163L150.293 130.852C150.447 130.837 150.654 130.829 150.914 130.829C151.175 130.829 151.413 130.906 151.627 131.059ZM163.464 138.281H155.805C155.805 139.477 155.989 140.351 156.357 140.903C156.74 141.455 157.499 141.731 158.634 141.731C159.37 141.731 159.914 141.501 160.267 141.041C160.62 140.566 160.796 140.114 160.796 139.684H163.487C163.487 141.325 163.042 142.529 162.153 143.295C161.279 144.062 160.114 144.445 158.657 144.445C157.216 144.445 156.096 144.238 155.299 143.824C153.658 142.981 152.838 140.742 152.838 137.108C152.838 134.946 153.306 133.367 154.241 132.37C155.176 131.358 156.602 130.852 158.519 130.852C161.846 130.852 163.51 132.7 163.51 136.395C163.51 136.794 163.495 137.423 163.464 138.281ZM155.874 136.234H160.796C160.796 135.222 160.604 134.486 160.221 134.026C159.838 133.566 159.247 133.336 158.45 133.336C157.668 133.336 157.039 133.574 156.564 134.049C156.104 134.509 155.874 135.238 155.874 136.234ZM176.065 138.281H168.406C168.406 139.477 168.59 140.351 168.958 140.903C169.341 141.455 170.1 141.731 171.235 141.731C171.971 141.731 172.515 141.501 172.868 141.041C173.22 140.566 173.397 140.114 173.397 139.684H176.088C176.088 141.325 175.643 142.529 174.754 143.295C173.88 144.062 172.714 144.445 171.258 144.445C169.816 144.445 168.697 144.238 167.9 143.824C166.259 142.981 165.439 140.742 165.439 137.108C165.439 134.946 165.906 133.367 166.842 132.37C167.777 131.358 169.203 130.852 171.12 130.852C174.447 130.852 176.111 132.7 176.111 136.395C176.111 136.794 176.095 137.423 176.065 138.281ZM168.475 136.234H173.397C173.397 135.222 173.205 134.486 172.822 134.026C172.438 133.566 171.848 133.336 171.051 133.336C170.269 133.336 169.64 133.574 169.165 134.049C168.705 134.509 168.475 135.238 168.475 136.234ZM196.495 134.371L193.551 140.581C193.122 141.409 192.585 141.823 191.941 141.823C191.312 141.823 190.783 141.386 190.354 140.512L187.364 134.371V144.146H184.167V127.77H187.318L191.941 137.223L196.541 127.77H199.692V144.146H196.495V134.371ZM212.654 138.281H204.995C204.995 139.477 205.179 140.351 205.547 140.903C205.93 141.455 206.689 141.731 207.824 141.731C208.56 141.731 209.104 141.501 209.457 141.041C209.809 140.566 209.986 140.114 209.986 139.684H212.677C212.677 141.325 212.232 142.529 211.343 143.295C210.469 144.062 209.303 144.445 207.847 144.445C206.405 144.445 205.286 144.238 204.489 143.824C202.848 142.981 202.028 140.742 202.028 137.108C202.028 134.946 202.495 133.367 203.431 132.37C204.366 131.358 205.792 130.852 207.709 130.852C211.036 130.852 212.7 132.7 212.7 136.395C212.7 136.794 212.684 137.423 212.654 138.281ZM205.064 136.234H209.986C209.986 135.222 209.794 134.486 209.411 134.026C209.027 133.566 208.437 133.336 207.64 133.336C206.858 133.336 206.229 133.574 205.754 134.049C205.294 134.509 205.064 135.238 205.064 136.234ZM232.338 144.146H229.348V135.981C229.348 135.169 229.249 134.601 229.049 134.279C228.865 133.957 228.536 133.796 228.06 133.796L225.369 134.923V144.146H222.379V135.981C222.379 134.525 221.873 133.796 220.861 133.796L218.4 134.923V144.146H215.41V131.013H217.641L218.331 132.577L221.781 130.875C222.977 130.875 223.882 131.458 224.495 132.623L228.773 130.875C229.969 130.875 230.859 131.282 231.441 132.094C232.039 132.892 232.338 133.973 232.338 135.337V144.146ZM241.17 144.169L238.571 144.146C237.421 144.146 236.547 143.809 235.949 143.134C235.366 142.46 235.075 141.655 235.075 140.719V126.85H238.065V132.646L241.63 130.99C242.994 130.99 243.999 131.358 244.643 132.094C245.21 132.754 245.563 133.819 245.701 135.291C245.747 135.905 245.77 136.664 245.77 137.568C245.77 141.969 244.236 144.169 241.17 144.169ZM238.824 141.593H240.296C241.952 141.593 242.78 140.252 242.78 137.568C242.78 136.204 242.649 135.253 242.389 134.716C242.143 134.18 241.599 133.911 240.756 133.911L238.065 135.36V140.535C238.065 141.149 238.318 141.501 238.824 141.593ZM258.272 138.281H250.613C250.613 139.477 250.797 140.351 251.165 140.903C251.548 141.455 252.307 141.731 253.442 141.731C254.178 141.731 254.722 141.501 255.075 141.041C255.427 140.566 255.604 140.114 255.604 139.684H258.295C258.295 141.325 257.85 142.529 256.961 143.295C256.087 144.062 254.921 144.445 253.465 144.445C252.023 144.445 250.904 144.238 250.107 143.824C248.466 142.981 247.646 140.742 247.646 137.108C247.646 134.946 248.113 133.367 249.049 132.37C249.984 131.358 251.41 130.852 253.327 130.852C256.654 130.852 258.318 132.7 258.318 136.395C258.318 136.794 258.302 137.423 258.272 138.281ZM250.682 136.234H255.604C255.604 135.222 255.412 134.486 255.029 134.026C254.645 133.566 254.055 133.336 253.258 133.336C252.476 133.336 251.847 133.574 251.372 134.049C250.912 134.509 250.682 135.238 250.682 136.234ZM267.997 131.059L267.169 134.003C266.939 133.911 266.679 133.865 266.387 133.865C265.621 133.865 264.678 134.195 263.558 134.854V144.146H260.568V131.013H262.799L263.489 132.163L266.663 130.852C266.817 130.837 267.024 130.829 267.284 130.829C267.545 130.829 267.783 130.906 267.997 131.059Z" fill="black"/>
</g>
<defs>
<linearGradient id="paint0_linear" x1="-1.29605" y1="71.9959" x2="31.2887" y2="227.251" gradientUnits="userSpaceOnUse">
<stop stop-color="#E5E5E5"/>
<stop offset="1" stop-color="#E0E0E0"/>
</linearGradient>
<linearGradient id="paint1_linear" x1="298.467" y1="71.9959" x2="329.111" y2="228.073" gradientUnits="userSpaceOnUse">
<stop stop-color="#E5E5E5"/>
<stop offset="1" stop-color="#E0E0E0"/>
</linearGradient>
<linearGradient id="paint2_linear" x1="65.6215" y1="38.3116" x2="77.8828" y2="199.472" gradientUnits="userSpaceOnUse">
<stop stop-color="#E5E5E5"/>
<stop offset="1" stop-color="#E0E0E0"/>
</linearGradient>
<clipPath id="clip0">
<rect width="402" height="224" fill="white"/>
</clipPath>
</defs>
</svg>
