<svg width="400" height="400" viewBox="0 0 400 400" fill="none" xmlns="http://www.w3.org/2000/svg">
<g clip-path="url(#clip0)">
<rect width="400" height="400" rx="200" fill="#30475E"/>
<path d="M250.541 307.724L263.725 300.112L271.343 313.307L258.159 320.919L250.541 307.724Z" fill="white"/>
<path d="M295.146 268.759L302.764 255.564L315.959 263.182L308.341 276.377L295.146 268.759Z" fill="white"/>
<path d="M314.258 197.384H330V212.618H314.258V197.384Z" fill="white"/>
<path d="M200 335.001C128.604 335.001 70 276.404 70 205.001C70 133.597 128.604 75.0007 200 75.0007C230.87 75.0007 260.536 86.5474 283.789 106.275V90.7429H299.023V144.532L285.693 129.432C264.002 104.846 232.76 90.2351 200 90.2351C136.995 90.2351 85.2344 141.995 85.2344 205.001C85.2344 268.006 136.995 319.766 200 319.766V335.001Z" fill="#F05454"/>
<path d="M285.693 129.432L299.023 144.532V90.7429H283.789V106.275C260.536 86.5474 230.87 75.0007 200 75.0007V90.2351C232.76 90.2351 264.002 104.846 285.693 129.432Z" fill="#F05454"/>
<path d="M124.06 118.947L113.29 129.717L102.52 118.947L113.29 108.178L124.06 118.947Z" fill="#EA1F1F"/>
<path d="M91.0801 168.287L87.1338 183.006L72.417 179.06L76.3632 164.342L91.0801 168.287Z" fill="#EA1F1F"/>
<path d="M90.9453 242.083L76.2284 246.044L72.2669 231.326L86.9838 227.365L90.9453 242.083Z" fill="#EA1F1F"/>
<path d="M177.162 92.7952L162.433 96.7442L158.488 82.0292L173.217 78.0802L177.162 92.7952Z" fill="#EA1F1F"/>
<path d="M299.023 205.001C299.023 259.54 254.54 304.024 200 304.024C192.23 304.024 184.613 303.11 177.301 301.282L139.062 265.938L276.172 189.766L299.023 205.001Z" fill="white"/>
<path d="M260.938 159.298L169.531 265.938L105.853 235.469C102.652 225.872 100.977 215.665 100.977 205.001C100.977 152.138 142.719 108.719 194.972 106.13L260.938 159.298Z" fill="#F05454"/>
<path d="M223.764 217.992L286.886 252.502C313.05 204.648 295.358 144.277 247.504 118.114L223.175 130.856L223.764 217.992Z" fill="#F05454"/>
<path d="M222.279 217.18L189.132 129.607L116.805 159.514L222.279 217.18Z" fill="#F05454"/>
<path d="M247.504 118.114L236.541 138.165C228.503 152.868 233.956 171.476 248.659 179.515L241.351 192.882C237.331 200.234 240.058 209.538 247.41 213.557C254.762 217.577 257.488 226.88 253.469 234.232L246.161 247.6C242.141 254.952 244.868 264.255 252.219 268.275C258.769 271.856 266.367 272.886 273.591 271.104C250.489 296.845 215.218 308.641 181.571 302.223L212.118 246.35C216.138 238.998 213.411 229.695 206.06 225.675C198.708 221.656 189.404 224.382 185.384 231.734L181.73 238.417C177.711 245.77 168.407 248.496 161.055 244.476C153.703 240.457 150.977 231.153 154.996 223.801L180.575 177.017C184.594 169.664 181.868 160.361 174.516 156.341C167.164 152.322 157.86 155.048 153.841 162.4L146.533 175.767C142.513 183.12 133.209 185.846 125.857 181.826C117.97 177.514 112.786 170.166 110.837 161.982C111.507 160.437 112.311 158.967 113.115 157.497C139.279 109.642 199.649 91.9509 247.504 118.114Z" fill="white"/>
<path d="M153.841 162.4C157.861 155.048 167.164 152.322 174.516 156.341C181.868 160.361 184.595 169.664 180.575 177.016L173.267 190.383L253.469 234.232C257.489 226.88 254.762 217.576 247.41 213.557C240.058 209.537 237.331 200.234 241.351 192.882L248.659 179.515C233.956 171.476 228.503 152.868 236.542 138.164L247.504 118.114C199.649 91.9505 139.279 109.642 113.115 157.497L146.533 175.767L153.841 162.4Z" fill="white"/>
</g>
<defs>
<clipPath id="clip0">
<rect width="400" height="400" rx="200" fill="white"/>
</clipPath>
</defs>
</svg>
