<svg width="80" height="15" viewBox="0 0 80 15" fill="none" xmlns="http://www.w3.org/2000/svg">
<path d="M4.42644 0L7.54703 9.73003L10.658 0H15.0941V13.9851H11.7142V10.7194L12.0407 4.03417L8.66084 13.9851H6.43322L3.04378 4.02456L3.37024 10.7194V13.9851H0V0H4.42644Z" fill="#30475E"/>
<path d="M26.8985 8.05873H21.5983V11.3917H27.8587V13.9851H18.2281V0H27.8779V2.603H21.5983V5.55178H26.8985V8.05873Z" fill="#30475E"/>
<path d="M41.8908 13.9851H38.5398L33.5852 5.28284V13.9851H30.215V0H33.5852L38.5302 8.70227V0H41.8908V13.9851Z" fill="#30475E"/>
<path d="M55.9709 0V9.15372C55.9709 10.1911 55.7501 11.0908 55.3084 11.8528C54.8667 12.6084 54.233 13.1847 53.4072 13.5817C52.5815 13.9787 51.6053 14.1772 50.4787 14.1772C48.776 14.1772 47.4349 13.7354 46.4555 12.8517C45.4761 11.968 44.9768 10.7578 44.9576 9.22095V0H48.3471V9.28819C48.3855 10.8186 49.096 11.5838 50.4787 11.5838C51.1764 11.5838 51.7045 11.3917 52.063 11.0075C52.4214 10.6233 52.6007 9.99897 52.6007 9.13451V0H55.9709Z" fill="#30475E"/>
<path d="M59.5382 0.551009L69.7691 13.0255L80 0.551008L59.5382 0.551009Z" fill="#30475E"/>
</svg>
