<svg width="671" height="666" viewBox="0 0 671 666" fill="none" xmlns="http://www.w3.org/2000/svg">
<path d="M422.146 158.174H247.637C243.66 158.178 239.847 159.76 237.035 162.572C234.223 165.384 232.641 169.197 232.637 173.174V561.024L230.637 561.634L187.827 574.744C185.798 575.362 183.606 575.151 181.733 574.155C179.86 573.16 178.459 571.461 177.837 569.434L50.4965 153.484C49.8768 151.455 50.0881 149.263 51.0838 147.39C52.0795 145.516 53.7782 144.115 55.8066 143.494L121.777 123.294L313.027 64.7537L378.997 44.5536C380 44.2447 381.056 44.1367 382.101 44.2359C383.147 44.3351 384.163 44.6396 385.091 45.1319C386.019 45.6242 386.84 46.2946 387.509 47.1048C388.177 47.915 388.68 48.8491 388.987 49.8537L421.537 156.174L422.146 158.174Z" fill="#EAEAEA"/>
<path d="M460.226 156.174L420.996 28.0335C420.344 25.8985 419.277 23.9129 417.856 22.1904C416.436 20.4679 414.69 19.0421 412.718 17.9946C410.747 16.947 408.588 16.2982 406.366 16.0853C404.143 15.8723 401.901 16.0994 399.766 16.7535L307.016 45.1435L115.776 103.694L23.0265 132.094C18.7178 133.417 15.1101 136.395 12.9952 140.375C10.8804 144.356 10.4312 149.012 11.7462 153.324L145.826 591.254C146.895 594.734 149.05 597.78 151.977 599.945C154.903 602.11 158.446 603.28 162.087 603.284C163.771 603.284 165.447 603.032 167.056 602.534L230.636 583.074L232.636 582.454V580.364L230.636 580.974L166.466 600.624C162.663 601.783 158.555 601.386 155.044 599.521C151.533 597.656 148.905 594.474 147.736 590.674L13.6666 152.734C13.0877 150.85 12.8859 148.872 13.0728 146.91C13.2598 144.949 13.8317 143.044 14.7559 141.304C15.6801 139.565 16.9385 138.024 18.4589 136.771C19.9793 135.519 21.7319 134.578 23.6163 134.004L116.366 105.604L307.607 47.0635L400.357 18.6635C401.786 18.2273 403.272 18.0049 404.766 18.0035C407.973 18.0107 411.094 19.0447 413.671 20.9539C416.248 22.8632 418.146 25.5475 419.087 28.6135L458.136 156.174L458.756 158.174H460.837L460.226 156.174Z" fill="#3F3D56"/>
<path d="M133.681 143.82C131.754 143.819 129.878 143.2 128.328 142.054C126.778 140.908 125.636 139.296 125.07 137.454L112.189 95.382C111.843 94.2519 111.723 93.0647 111.836 91.8881C111.949 90.7116 112.292 89.5688 112.847 88.525C113.401 87.4812 114.156 86.5569 115.068 85.8048C115.979 85.0527 117.03 84.4876 118.161 84.1418L294.1 30.278C296.382 29.5815 298.847 29.8191 300.955 30.9385C303.062 32.0579 304.64 33.9677 305.34 36.2487L318.221 78.321C318.917 80.6033 318.679 83.0686 317.56 85.1759C316.44 87.2832 314.531 88.8605 312.25 89.5617L136.311 143.425C135.459 143.687 134.572 143.82 133.681 143.82V143.82Z" fill="#F05454"/>
<path d="M201.153 60.9551C212.199 60.9551 221.153 52.0008 221.153 40.9551C221.153 29.9094 212.199 20.9551 201.153 20.9551C190.108 20.9551 181.153 29.9094 181.153 40.9551C181.153 52.0008 190.108 60.9551 201.153 60.9551Z" fill="#F05454"/>
<path d="M201.154 53.6193C208.148 53.6193 213.818 47.9491 213.818 40.9547C213.818 33.9602 208.148 28.29 201.154 28.29C194.159 28.29 188.489 33.9602 188.489 40.9547C188.489 47.9491 194.159 53.6193 201.154 53.6193Z" fill="white"/>
<path d="M458.137 156.174H247.637C243.13 156.18 238.81 157.973 235.623 161.16C232.436 164.347 230.643 168.667 230.637 173.174V580.974L232.637 580.364V173.174C232.642 169.197 234.223 165.385 237.035 162.573C239.847 159.761 243.66 158.179 247.637 158.174H458.757L458.137 156.174ZM641.637 156.174H247.637C243.13 156.18 238.81 157.973 235.623 161.16C232.436 164.347 230.643 168.667 230.637 173.174V631.174C230.643 635.681 232.436 640.001 235.623 643.188C238.81 646.374 243.13 648.167 247.637 648.174H641.637C646.143 648.167 650.464 646.374 653.651 643.188C656.837 640.001 658.63 635.681 658.637 631.174V173.174C658.63 168.667 656.837 164.347 653.651 161.16C650.464 157.973 646.143 156.18 641.637 156.174V156.174ZM656.637 631.174C656.632 635.151 655.05 638.963 652.238 641.775C649.426 644.587 645.613 646.169 641.637 646.174H247.637C243.66 646.169 239.847 644.587 237.035 641.775C234.223 638.963 232.642 635.151 232.637 631.174V173.174C232.642 169.197 234.223 165.385 237.035 162.573C239.847 159.761 243.66 158.179 247.637 158.174H641.637C645.613 158.179 649.426 159.761 652.238 162.573C655.05 165.385 656.632 169.197 656.637 173.174V631.174Z" fill="#3F3D56"/>
<path d="M613.637 598.174H275.637C273.383 598.171 271.223 597.275 269.629 595.681C268.036 594.088 267.139 591.927 267.137 589.674V184.674C267.139 182.42 268.036 180.26 269.629 178.666C271.223 177.073 273.383 176.176 275.637 176.174H613.637C615.89 176.176 618.051 177.073 619.644 178.666C621.238 180.26 622.134 182.42 622.137 184.674V589.674C622.134 591.927 621.238 594.088 619.644 595.681C618.051 597.275 615.89 598.171 613.637 598.174V598.174Z" fill="#EAEAEA"/>
<path d="M536.637 200.174H352.637C350.251 200.171 347.963 199.222 346.276 197.535C344.588 195.848 343.639 193.56 343.637 191.174V147.174C343.639 144.788 344.589 142.5 346.276 140.813C347.963 139.126 350.251 138.177 352.637 138.174H536.637C539.023 138.177 541.31 139.126 542.998 140.813C544.685 142.5 545.634 144.788 545.637 147.174V191.174C545.634 193.56 544.685 195.848 542.998 197.535C541.31 199.222 539.023 200.171 536.637 200.174V200.174Z" fill="#F05454"/>
<path d="M444.637 141.174C455.682 141.174 464.637 132.22 464.637 121.174C464.637 110.128 455.682 101.174 444.637 101.174C433.591 101.174 424.637 110.128 424.637 121.174C424.637 132.22 433.591 141.174 444.637 141.174Z" fill="#F05454"/>
<path d="M444.636 133.356C451.364 133.356 456.818 127.902 456.818 121.174C456.818 114.446 451.364 108.992 444.636 108.992C437.908 108.992 432.454 114.446 432.454 121.174C432.454 127.902 437.908 133.356 444.636 133.356Z" fill="white"/>
</svg>
