<svg width="512" height="512" viewBox="0 0 512 512" fill="none" xmlns="http://www.w3.org/2000/svg">
<g clip-path="url(#clip0)">
<path d="M387.663 464.017C384.893 459.243 378.776 457.617 373.996 460.387L373.611 460.609C368.835 463.38 367.21 469.499 369.98 474.276C371.835 477.473 375.19 479.259 378.638 479.259C380.34 479.259 382.068 478.822 383.647 477.906L384.032 477.684C388.808 474.913 390.433 468.794 387.663 464.017Z" fill="black"/>
<path d="M477.694 128.08C443.512 68.875 388.321 26.526 322.287 8.83204C256.255 -8.86196 187.283 0.21904 128.078 34.4C68.8736 68.581 26.5236 123.773 8.83062 189.806C-8.86238 255.839 0.217617 324.812 34.3986 384.016C65.0596 437.123 113.792 477.484 171.618 497.662C199.029 507.226 227.644 511.999 256.215 511.999C287.28 511.999 318.289 506.353 347.6 495.088C352.755 493.107 355.327 487.322 353.345 482.167C351.363 477.012 345.577 474.437 340.424 476.422C262.404 506.409 177.942 492.784 114.839 445.418L123.798 398.653L128.115 397.251C144.428 391.951 153.388 374.367 148.09 358.053L144.922 348.304C144.189 346.048 144.193 343.663 144.932 341.409C147.711 332.937 146.718 323.668 142.207 315.976C137.696 308.285 130.091 302.892 121.34 301.181L98.7696 296.771L55.2216 263.661C52.6126 261.677 49.1976 261.098 46.0796 262.11L20.5836 270.392C20.0426 261.273 20.0346 252.157 20.5486 243.089C21.5546 244.026 22.2096 244.663 22.6126 245.081C23.1116 245.912 23.7296 246.674 24.4536 247.334C26.5356 249.23 28.4216 250.09 32.3816 250.09C36.0206 250.089 41.4076 249.364 50.3026 248.05C58.7386 246.803 67.1306 245.398 67.2136 245.384C70.5766 244.821 73.4196 242.581 74.7576 239.446C76.0956 236.31 75.7426 232.709 73.8216 229.891L61.5606 211.907L79.1226 199.349C80.2926 198.512 81.2686 197.433 81.9836 196.185L109.207 148.66L120.18 136.902C131.393 124.884 134.593 107.301 128.331 92.105C124.637 83.142 118.185 75.68 110.115 70.651C118.855 63.78 128.174 57.436 138.078 51.719C174.416 30.739 214.072 20.572 253.311 20.183L235.455 42.582L169.24 65.795C166.551 66.737 164.391 68.783 163.305 71.417L144.813 116.245C143.5 119.43 143.917 123.064 145.918 125.868L172.926 163.7C169.058 167.229 165.293 172.369 160.796 178.751C158.824 181.55 156.962 184.193 155.675 185.675C154.556 186.965 153.436 188.225 152.326 189.473C146.517 196.008 140.511 202.767 136.244 211.795C126.862 231.654 128.757 254.736 141.189 272.034C153.21 288.759 173.028 297.261 194.18 294.773C197.626 294.369 200.839 293.574 203.948 292.804C212.521 290.683 215.237 290.471 217.987 293.045C219.325 294.298 219.448 294.535 219.421 298.784C219.402 301.488 219.381 304.852 220.313 308.693C221.806 314.838 225.665 319.085 228.765 322.497C230.306 324.192 231.9 325.946 232.391 327.123C235.51 334.597 234.152 338.736 231.176 347.806C230.921 348.582 230.661 349.374 230.4 350.186C225.879 364.181 232.181 378.063 237.741 390.309C239.547 394.286 241.252 398.04 242.369 401.358C251.36 428.037 258.1 434.147 263.509 436.607C266.342 437.895 269.274 438.46 272.236 438.459C286.651 438.458 301.693 425.074 308.603 416.589C312.943 411.261 314.012 405.926 314.792 402.029C315.181 400.091 315.487 398.561 316.071 397.561C316.965 396.031 318.018 394.845 319.351 393.343C322.032 390.324 325.369 386.568 327.53 379.759C329.172 374.587 330.365 373.319 334.316 369.111C335.004 368.38 335.737 367.598 336.524 366.742C349.843 352.249 346.413 341.178 342.78 329.456C339.723 319.593 345.07 313.285 357.998 301.246C363.602 296.027 369.396 290.631 373.875 284.147C375.835 281.309 381.798 272.676 378.108 264.119C374.491 255.729 365.298 254.319 357.912 253.187C354.995 252.739 350.587 252.063 349.184 251.146C342.997 247.101 339.212 238.659 335.551 230.494C334.822 228.869 334.103 227.265 333.374 225.708C332.074 222.93 330.775 219.569 329.4 216.011C325.762 206.595 321.639 195.922 314.62 188.482C308.311 181.797 296.418 178.577 285.925 175.735C282.396 174.78 279.065 173.878 276.868 173.067C275.027 172.387 273.029 172.264 271.123 172.712C266.016 173.909 262.83 175.228 260.464 177.124C259.839 177.625 257.988 179.27 256.904 181.914C253.243 180.157 248.209 176.802 245.111 174.737C245.047 174.694 244.982 174.651 244.918 174.608C245.962 170.43 245.017 167.077 244.027 164.983C238.441 153.167 219.898 154.092 216.24 154.403C214.162 154.577 211.533 154.67 208.752 154.768C204.384 154.923 199.556 155.097 194.779 155.633L195.025 154.947C198.651 144.844 208.299 138.056 219.033 138.056H224.718C230.239 138.056 234.717 133.578 234.717 128.057C234.717 122.536 230.239 118.058 224.718 118.058H219.033C203.097 118.058 188.504 126.445 180.325 139.646L165.41 118.753L180.084 83.184L244.787 60.5C246.561 59.878 248.125 58.768 249.298 57.297L278.061 21.218C351.555 28.209 420.735 69.415 460.377 138.077C470.936 156.366 478.747 175.62 483.94 195.313L479.701 199.093C474.168 204.03 470.926 211.111 470.802 218.522C470.801 218.603 470.799 218.683 470.796 218.763L463.89 199.771C462.861 196.937 461.345 194.338 459.387 192.047L447.068 177.624C442.292 172.033 435.338 168.828 427.987 168.828H412.908C407.555 168.828 402.663 171.76 400.138 176.477C397.613 181.195 397.889 186.893 400.858 191.345L402.384 193.636C392.64 202.015 381.37 208.72 369.37 213.242L348.7 173.649V164.816C348.7 162.084 347.582 159.469 345.605 157.584L326.992 139.815C325.965 138.835 324.741 138.085 323.402 137.614L306.647 131.726C301.434 129.892 295.728 132.635 293.898 137.844C292.067 143.055 294.806 148.762 300.016 150.593L314.74 155.768L328.702 169.095V176.103C328.702 177.714 329.092 179.302 329.838 180.731L355.715 230.298C358.042 234.758 363.324 236.796 368.038 235.052L375.573 232.274C393.078 225.818 409.303 215.433 422.495 202.243C425.865 198.872 426.389 193.593 423.744 189.626L423.212 188.827H427.987C429.48 188.827 430.893 189.478 431.863 190.614L444.182 205.037C444.579 205.502 444.886 206.028 445.096 206.605L458.691 243.988C459.859 247.2 462.587 249.592 465.921 250.332C466.641 250.491 467.366 250.569 468.087 250.569C470.71 250.569 473.263 249.536 475.157 247.64L481.628 241.169C485.726 237.07 488.547 231.884 489.895 226.135C499.903 306.34 468.454 389.308 401.98 441.482C397.635 444.891 396.877 451.176 400.288 455.521C403.697 459.866 409.981 460.624 414.327 457.213C462.319 419.546 495.289 365.671 507.164 305.512C519.15 244.773 508.685 181.758 477.694 128.08ZM47.2816 282.747L88.5146 314.098C89.7336 315.025 91.1476 315.659 92.6496 315.952L117.502 320.808C120.674 321.428 123.32 323.304 124.955 326.092C126.59 328.879 126.934 332.104 125.928 335.175C123.858 341.488 123.848 348.165 125.901 354.482L129.069 364.23C130.962 370.056 127.76 376.337 121.935 378.23L111.998 381.459C108.531 382.585 105.953 385.509 105.268 389.087L97.2696 430.836C79.6866 414.743 64.2486 395.723 51.7176 374.018C36.4296 347.541 26.8776 319.3 22.6676 290.744L47.2816 282.747ZM105.559 123.258L93.7956 135.861C93.2706 136.424 92.8116 137.046 92.4286 137.714L65.7166 184.35L41.9756 201.326C37.5536 204.488 36.4676 210.601 39.5296 215.093L48.4086 228.117C43.2906 228.879 38.6976 229.507 35.6436 229.84C35.0566 229.277 34.4426 228.706 33.8076 228.116C31.4306 225.908 28.1276 222.959 23.2036 218.65C31.3246 168.387 55.5446 121.035 93.6366 84.89C100.931 87.187 106.917 92.628 109.841 99.725C113.131 107.707 111.449 116.945 105.559 123.258ZM187.089 177.901C191.549 175.391 201.901 175.024 209.459 174.756C212.488 174.649 215.35 174.547 217.906 174.333C219.255 174.22 220.753 174.241 222.166 174.351C221.535 175.971 221.33 177.749 221.604 179.513C222.085 182.616 223.998 185.311 226.766 186.792C228.642 187.796 231.253 189.537 234.017 191.38C241.832 196.59 250.691 202.495 259.013 203.025C266.581 203.516 270.792 199.203 272.596 197.366C272.74 197.22 272.876 197.074 273.02 196.941C274.036 196.113 274.988 195.003 275.696 193.664C277.295 194.121 278.975 194.576 280.697 195.043C286.618 196.646 297.639 199.63 300.074 202.21C304.399 206.795 307.77 215.522 310.745 223.221C312.248 227.112 313.668 230.784 315.261 234.189C315.945 235.65 316.618 237.155 317.302 238.679C321.916 248.971 327.146 260.637 338.241 267.889C343.272 271.178 349.439 272.123 354.881 272.958C355.539 273.059 356.293 273.175 357.059 273.301C353.829 277.807 349.23 282.089 344.371 286.614C331.992 298.142 316.586 312.49 323.681 335.379C327.03 346.187 327.186 347.355 321.801 353.213C321.067 354.012 320.383 354.74 319.742 355.422C315.13 360.332 311.487 364.21 308.471 373.71C307.595 376.469 306.46 377.747 304.399 380.067C302.751 381.923 300.698 384.235 298.805 387.475C296.537 391.357 295.787 395.095 295.186 398.098C294.593 401.053 294.257 402.536 293.097 403.96C290.456 407.202 285.53 411.91 280.473 415.123C275.773 418.107 273.029 418.515 272.094 418.459C271.027 417.315 267.162 412.306 261.322 394.973C259.882 390.697 257.884 386.297 255.952 382.042C251.693 372.662 247.29 362.962 249.432 356.333C249.685 355.551 249.935 354.787 250.181 354.04C253.603 343.61 256.833 333.761 250.849 319.421C249.027 315.054 246.126 311.863 243.569 309.047C241.914 307.226 240.039 305.162 239.75 303.974C239.398 302.525 239.409 300.852 239.422 298.915C239.456 293.69 239.508 285.795 231.659 278.445C220.593 268.087 207.689 271.278 199.149 273.39C196.526 274.038 194.048 274.652 191.852 274.91C177.804 276.556 165.262 271.256 157.432 260.36C149.241 248.963 148.052 233.626 154.33 220.336C157.369 213.905 161.96 208.738 167.276 202.758C168.437 201.451 169.609 200.133 170.781 198.783C172.731 196.535 174.877 193.491 177.146 190.268C179.855 186.423 184.899 179.263 187.089 177.901Z" fill="black"/>
<path d="M410.022 344.278L405.211 326.144C404.16 322.184 400.8 319.266 396.733 318.78C392.661 318.304 388.712 320.34 386.757 323.941C385.661 325.961 384.674 328.101 383.72 330.17C382.115 333.651 380.455 337.251 378.728 339.238C377.758 340.354 375.266 341.557 372.858 342.719C367.101 345.497 359.216 349.302 356.204 358.904C354.334 364.86 355.032 369.572 355.542 373.012C355.983 375.995 356.085 377.029 355.286 378.905L355.186 379.138C352.003 386.607 346.081 400.512 354.385 412.333C360.31 420.769 366.54 422.938 371.381 422.938C372.326 422.941 373.22 422.858 374.047 422.723C384.247 421.056 391.915 410.446 398.181 389.33L409.943 349.689C410.466 347.926 410.494 346.054 410.022 344.278ZM379.01 383.641C375.816 394.407 372.99 399.433 371.359 401.661C371.171 401.421 370.967 401.149 370.749 400.838C368.838 398.116 371.694 391.412 373.584 386.975L373.685 386.741C376.733 379.587 375.918 374.093 375.325 370.081C374.944 367.512 374.808 366.408 375.285 364.891C375.677 363.644 378.02 362.434 381.55 360.73C383.115 359.974 384.838 359.143 386.577 358.137L379.01 383.641Z" fill="black"/>
<path d="M270.029 118.86L269.354 118.624C264.147 116.8 258.437 119.539 256.609 124.75C254.781 129.962 257.524 135.667 262.735 137.495L263.409 137.731C264.504 138.115 265.62 138.297 266.719 138.297C270.847 138.297 274.711 135.72 276.155 131.605C277.983 126.393 275.24 120.687 270.029 118.86Z" fill="black"/>
</g>
<defs>
<clipPath id="clip0">
<rect width="512" height="512" fill="white"/>
</clipPath>
</defs>
</svg>
