<svg width="230" height="230" viewBox="0 0 230 230" fill="none" xmlns="http://www.w3.org/2000/svg">
<g clip-path="url(#clip0)">
<path d="M210.833 39.9625V89.5084L115 54.05L19.1663 89.5084V39.9625C19.1663 36.9917 21.0829 34.3084 23.8621 33.2542L112.508 0.479199C114.137 -0.191634 115.862 -0.191634 117.491 0.479199L206.137 33.2542C208.916 34.3084 210.833 36.9917 210.833 39.9625V39.9625Z" fill="#1976D2"/>
<path d="M210.833 89.5084V116.629C210.833 203.933 117.779 229.521 116.82 229.809L115 230L113.179 229.809C112.22 229.521 19.1663 203.933 19.1663 116.629V89.5084L115 54.05L210.833 89.5084Z" fill="#2196F3"/>
<path d="M167.335 121.143C166.482 118.584 164.278 116.725 161.604 116.322L133.937 112.096L121.498 85.5983C119.14 80.5574 110.851 80.5574 108.493 85.5983L96.054 112.096L68.387 116.322C65.7228 116.725 63.5091 118.594 62.6562 121.143C61.7937 123.692 62.4453 126.519 64.3237 128.445L84.5541 149.174L79.7624 178.528C79.3216 181.24 80.462 183.971 82.7236 185.562C84.9757 187.153 87.937 187.297 90.3424 185.974L115 172.347L139.649 185.974C140.732 186.578 141.929 186.875 143.127 186.875C144.574 186.875 146.031 186.434 147.267 185.562C149.519 183.971 150.66 181.24 150.229 178.528L145.437 149.174L165.667 128.445C167.546 126.519 168.197 123.692 167.335 121.143V121.143Z" fill="#FAFAFA"/>
<path d="M115 0H114.444C113.792 0.0575 113.14 0.220417 112.508 0.479167L23.8621 33.2542C21.0829 34.3083 19.1663 36.9917 19.1663 39.9625V89.5083L115 54.05V0Z" fill="#1667B7"/>
<path d="M115 54.05L19.1663 89.5084V116.629C19.1663 203.933 112.22 229.521 113.179 229.809L115 230V172.347L90.3513 185.974C89.2588 186.578 88.0608 186.875 86.8629 186.875C85.4158 186.875 83.9592 186.434 82.7229 185.572C80.4708 183.981 79.3304 181.25 79.7617 178.538L84.5533 149.184L64.3229 128.455C62.4446 126.529 61.7929 123.702 62.6554 121.153C63.5083 118.594 65.7125 116.735 68.3863 116.332L96.0533 112.106L108.493 85.608C109.671 83.0684 112.335 81.8034 115 81.8034V54.05Z" fill="#1D83D4"/>
<path d="M115 81.8032C112.336 81.8032 109.672 83.0682 108.493 85.5886L96.0541 112.087L68.387 116.313C65.7228 116.715 63.5091 118.584 62.6562 121.133C61.7937 123.682 62.4453 126.509 64.3237 128.436L84.5541 149.164L79.7624 178.518C79.3216 181.23 80.462 183.961 82.7237 185.552C83.9599 186.424 85.407 186.856 86.8637 186.856C88.0616 186.856 89.2595 186.559 90.3424 185.964L115 172.346V81.8032Z" fill="#DADADA"/>
</g>
<defs>
<clipPath id="clip0">
<rect width="230" height="230" fill="white"/>
</clipPath>
</defs>
</svg>
