<svg width="402" height="224" viewBox="0 0 402 224" fill="none" xmlns="http://www.w3.org/2000/svg">
<g clip-path="url(#clip0)">
<path d="M56.0164 182.231V170.201V129.299H0L39.541 167.795L0 206.291H95.5574V182.231H69.1967H56.0164Z" fill="url(#paint0_linear)"/>
<path d="M402 129.299H345.984V170.201V182.231H332.804H299.853V206.291H402L362.459 167.795L402 129.299Z" fill="url(#paint1_linear)"/>
<path d="M332.803 95.6147H69.1968V172.607H332.803V95.6147Z" fill="url(#paint2_linear)"/>
<path d="M143.107 128.896C144.14 129.913 144.657 131.413 144.657 133.396C144.657 135.38 144.14 136.888 143.107 137.921C142.09 138.938 140.649 139.446 138.782 139.446H135.357V145.146H131.882V127.346H138.782C140.649 127.346 142.09 127.863 143.107 128.896ZM141.182 133.396C141.182 131.43 140.324 130.446 138.607 130.446H135.357V136.321H138.607C139.44 136.321 140.074 136.096 140.507 135.646C140.957 135.196 141.182 134.446 141.182 133.396ZM154.905 130.921L154.005 134.121C153.755 134.021 153.472 133.971 153.155 133.971C152.322 133.971 151.297 134.33 150.08 135.046V145.146H146.83V130.871H149.255L150.005 132.121L153.455 130.696C153.622 130.68 153.847 130.671 154.13 130.671C154.413 130.671 154.672 130.755 154.905 130.921ZM164.796 138.696V137.396C164.796 136.163 164.613 135.221 164.246 134.571C163.896 133.921 163.155 133.596 162.021 133.596C160.188 133.596 159.271 134.83 159.271 137.296V138.596C159.271 141.246 160.188 142.571 162.021 142.571C163.205 142.571 163.98 142.13 164.346 141.246C164.646 140.546 164.796 139.696 164.796 138.696ZM168.046 137.946C168.046 141.03 167.463 143.096 166.296 144.146C165.313 145.046 163.888 145.496 162.021 145.496C159.638 145.496 158.03 144.796 157.196 143.396C156.413 142.113 156.021 140.296 156.021 137.946C156.021 135.746 156.413 134.021 157.196 132.771C158.063 131.371 159.638 130.671 161.921 130.671C164.221 130.671 165.813 131.288 166.696 132.521C167.596 133.738 168.046 135.546 168.046 137.946ZM189.856 134.521L186.656 141.271C186.189 142.171 185.606 142.621 184.906 142.621C184.223 142.621 183.648 142.146 183.181 141.196L179.931 134.521V145.146H176.456V127.346H179.881L184.906 137.621L189.906 127.346H193.331V145.146H189.856V134.521ZM207.42 138.771H199.095C199.095 140.071 199.295 141.021 199.695 141.621C200.111 142.221 200.936 142.521 202.17 142.521C202.97 142.521 203.561 142.271 203.945 141.771C204.328 141.255 204.52 140.763 204.52 140.296H207.445C207.445 142.08 206.961 143.388 205.995 144.221C205.045 145.055 203.778 145.471 202.195 145.471C200.628 145.471 199.411 145.246 198.545 144.796C196.761 143.88 195.87 141.446 195.87 137.496C195.87 135.146 196.378 133.43 197.395 132.346C198.411 131.246 199.961 130.696 202.045 130.696C205.661 130.696 207.47 132.705 207.47 136.721C207.47 137.155 207.453 137.838 207.42 138.771ZM199.17 136.546H204.52C204.52 135.446 204.311 134.646 203.895 134.146C203.478 133.646 202.836 133.396 201.97 133.396C201.12 133.396 200.436 133.655 199.92 134.171C199.42 134.671 199.17 135.463 199.17 136.546ZM228.816 145.146H225.566V136.271C225.566 135.388 225.458 134.771 225.241 134.421C225.041 134.071 224.683 133.896 224.166 133.896L221.241 135.121V145.146H217.991V136.271C217.991 134.688 217.441 133.896 216.341 133.896L213.666 135.121V145.146H210.416V130.871H212.841L213.591 132.571L217.341 130.721C218.641 130.721 219.624 131.355 220.291 132.621L224.941 130.721C226.241 130.721 227.208 131.163 227.841 132.046C228.491 132.913 228.816 134.088 228.816 135.571V145.146ZM238.415 145.171L235.59 145.146C234.34 145.146 233.39 144.78 232.74 144.046C232.107 143.313 231.79 142.438 231.79 141.421V126.346H235.04V132.646L238.915 130.846C240.399 130.846 241.49 131.246 242.19 132.046C242.807 132.763 243.19 133.921 243.34 135.521C243.39 136.188 243.415 137.013 243.415 137.996C243.415 142.78 241.749 145.171 238.415 145.171ZM235.865 142.371H237.465C239.265 142.371 240.165 140.913 240.165 137.996C240.165 136.513 240.024 135.48 239.74 134.896C239.474 134.313 238.882 134.021 237.965 134.021L235.04 135.596V141.221C235.04 141.888 235.315 142.271 235.865 142.371ZM257.005 138.771H248.68C248.68 140.071 248.88 141.021 249.28 141.621C249.696 142.221 250.521 142.521 251.755 142.521C252.555 142.521 253.146 142.271 253.53 141.771C253.913 141.255 254.105 140.763 254.105 140.296H257.03C257.03 142.08 256.546 143.388 255.58 144.221C254.63 145.055 253.363 145.471 251.78 145.471C250.213 145.471 248.996 145.246 248.13 144.796C246.346 143.88 245.455 141.446 245.455 137.496C245.455 135.146 245.963 133.43 246.98 132.346C247.996 131.246 249.546 130.696 251.63 130.696C255.246 130.696 257.055 132.705 257.055 136.721C257.055 137.155 257.038 137.838 257.005 138.771ZM248.755 136.546H254.105C254.105 135.446 253.896 134.646 253.48 134.146C253.063 133.646 252.421 133.396 251.555 133.396C250.705 133.396 250.021 133.655 249.505 134.171C249.005 134.671 248.755 135.463 248.755 136.546ZM267.576 130.921L266.676 134.121C266.426 134.021 266.143 133.971 265.826 133.971C264.993 133.971 263.968 134.33 262.751 135.046V145.146H259.501V130.871H261.926L262.676 132.121L266.126 130.696C266.293 130.68 266.518 130.671 266.801 130.671C267.084 130.671 267.343 130.755 267.576 130.921Z" fill="black"/>
<path d="M169.211 18L178.327 32.6112L195.09 36.736L183.962 49.8911L185.205 67.0516L169.211 60.5706L153.217 67.0516L154.46 49.8911L143.332 36.736L160.094 32.6112L169.211 18Z" fill="url(#paint3_linear)"/>
<path d="M233.632 18L242.749 32.6112L259.511 36.736L248.383 49.8911L249.626 67.0516L233.632 60.5706L217.638 67.0516L218.881 49.8911L207.753 36.736L224.515 32.6112L233.632 18Z" fill="url(#paint4_linear)"/>
</g>
<defs>
<linearGradient id="paint0_linear" x1="47.7787" y1="153.797" x2="47.7787" y2="223.79" gradientUnits="userSpaceOnUse">
<stop stop-color="#D1D1D1"/>
<stop offset="1" stop-color="#767676"/>
</linearGradient>
<linearGradient id="paint1_linear" x1="350.927" y1="153.797" x2="350.927" y2="223.79" gradientUnits="userSpaceOnUse">
<stop stop-color="#D1D1D1"/>
<stop offset="1" stop-color="#767676"/>
</linearGradient>
<linearGradient id="paint2_linear" x1="201" y1="120.112" x2="201" y2="190.105" gradientUnits="userSpaceOnUse">
<stop stop-color="#D1D1D1"/>
<stop offset="1" stop-color="#767676"/>
</linearGradient>
<linearGradient id="paint3_linear" x1="169.211" y1="35.255" x2="169.211" y2="84.5552" gradientUnits="userSpaceOnUse">
<stop stop-color="#D1D1D1"/>
<stop offset="1" stop-color="#767676"/>
</linearGradient>
<linearGradient id="paint4_linear" x1="233.632" y1="35.255" x2="233.632" y2="84.5552" gradientUnits="userSpaceOnUse">
<stop stop-color="#D1D1D1"/>
<stop offset="1" stop-color="#767676"/>
</linearGradient>
<clipPath id="clip0">
<rect width="402" height="224" fill="white"/>
</clipPath>
</defs>
</svg>
