<svg width="400" height="400" viewBox="0 0 400 400" fill="none" xmlns="http://www.w3.org/2000/svg">
<rect width="400" height="400" rx="200" fill="#30475E"/>
<path d="M199.887 311C199.125 311 198.364 310.866 197.638 310.599C172.097 301.189 150.367 284.413 134.798 262.085C119.229 239.758 111 213.568 111 186.349V112.848C111 110.231 112.568 107.869 114.98 106.854C143.116 95.007 171.683 89 199.887 89C228.091 89 256.658 95.007 284.793 106.854C287.205 107.869 288.773 110.231 288.773 112.848V186.349C288.773 213.568 280.544 239.758 264.975 262.086C249.406 284.413 227.677 301.19 202.135 310.599C201.41 310.866 200.648 311 199.887 311V311Z" fill="#F05454"/>
<path d="M264.975 262.085C280.544 239.758 288.773 213.568 288.773 186.349V112.848C288.773 110.231 287.205 107.869 284.793 106.854C256.658 95.007 228.091 89 199.887 89V311C200.648 311 201.41 310.866 202.135 310.599C227.677 301.189 249.406 284.413 264.975 262.085Z" fill="#EA1F1F"/>
<path d="M124.008 117.209V186.349C124.008 235.347 154.4 279.724 199.887 297.539C245.374 279.724 275.766 235.347 275.766 186.349V117.209C225.392 97.0743 174.381 97.0743 124.008 117.209V117.209Z" fill="#192D42"/>
<path d="M275.766 186.349V117.209C250.579 107.141 225.233 102.108 199.887 102.108V297.539C245.374 279.724 275.766 235.347 275.766 186.349V186.349Z" fill="#30475E"/>
<path d="M199.887 282.761C198.915 282.761 197.944 282.544 197.047 282.109C179.174 273.435 164.089 259.898 153.422 242.962C142.689 225.919 137.016 206.343 137.016 186.35V130.856C137.016 128.047 138.82 125.554 141.489 124.677C160.998 118.266 180.646 115.016 199.887 115.016C219.127 115.016 238.775 118.266 258.284 124.677C260.954 125.555 262.758 128.047 262.758 130.856V186.35C262.758 206.343 257.085 225.919 246.351 242.962C235.684 259.899 220.599 273.435 202.726 282.109C201.83 282.544 200.858 282.761 199.887 282.761V282.761Z" fill="#FFF5F5"/>
<path d="M202.726 282.109C220.6 273.435 235.685 259.898 246.351 242.962C257.085 225.919 262.758 206.343 262.758 186.35V130.856C262.758 128.047 260.954 125.554 258.284 124.677C238.775 118.266 219.127 115.016 199.887 115.016V282.761C200.858 282.761 201.83 282.544 202.726 282.109V282.109Z" fill="#E2DFF4"/>
<path d="M185.241 220.869L170.594 206.223C168.168 203.796 168.168 199.862 170.594 197.435C173.021 195.009 176.955 195.009 179.382 197.435L189.635 207.688L220.392 176.93C222.819 174.503 226.753 174.503 229.18 176.93C231.607 179.357 231.607 183.291 229.18 185.718L194.028 220.87C191.602 223.296 187.667 223.296 185.241 220.869V220.869Z" fill="#F05454"/>
<path d="M220.431 176.825L200 197.381V215L229.187 185.634C231.604 183.201 231.604 179.257 229.187 176.825C226.769 174.392 222.849 174.392 220.431 176.825Z" fill="#EA1F1F"/>
</svg>
