<svg width="512" height="512" viewBox="0 0 512 512" fill="none" xmlns="http://www.w3.org/2000/svg">
<g clip-path="url(#clip0)">
<path d="M466.396 88.4113C395.951 69.1093 325.092 39.0542 261.479 1.49625C258.1 -0.49875 253.907 -0.49875 250.529 1.49625C185.081 40.1333 118.051 68.5623 45.6056 88.4113C40.9256 89.6923 37.6816 93.9463 37.6816 98.7993V208.845C37.6816 322.168 89.9606 397.18 133.819 440.151C181.035 486.416 236.035 512.001 256.004 512.001C275.971 512.001 330.971 486.416 378.187 440.151C422.044 397.181 474.32 322.169 474.32 208.845V98.7982C474.32 93.9462 471.076 89.6923 466.396 88.4113ZM452.78 208.844C452.78 314.687 404.019 384.682 363.111 424.764C316.68 470.259 267.037 490.459 256.004 490.459C244.971 490.459 195.325 470.259 148.893 424.764C107.986 384.681 59.2226 314.687 59.2226 208.844V106.974C128.501 87.3043 193.019 59.8533 256.006 23.2502C317.42 58.8822 385.157 87.6983 452.78 106.97V208.844Z" fill="black"/>
<path d="M160.539 105.769C158.359 100.234 152.106 97.5152 146.57 99.6962C127.33 107.277 107.582 114.255 87.8751 120.437C83.3841 121.847 80.3281 126.007 80.3281 130.713V172.304C80.3281 178.252 85.1511 183.074 91.0981 183.074C97.0451 183.074 101.868 178.252 101.868 172.304V138.584C119.547 132.864 137.207 126.537 154.466 119.736C160.001 117.557 162.72 111.304 160.539 105.769Z" fill="black"/>
<path d="M180.998 107.812C182.443 107.812 183.91 107.521 185.317 106.907L185.515 106.821C190.964 104.433 193.418 98.0902 191.03 92.6432C188.64 87.1942 182.261 84.7292 176.818 87.1152L176.644 87.1902C171.192 89.5712 168.73 95.9092 171.111 101.359C172.878 105.405 176.843 107.812 180.998 107.812Z" fill="black"/>
<path d="M384.323 347.283C379.346 344.03 372.672 345.429 369.415 350.408C360.54 363.992 350.128 377 338.464 389.067C328.872 398.989 318.478 408.237 307.571 416.552C302.842 420.158 301.932 426.916 305.537 431.647C307.658 434.426 310.865 435.888 314.109 435.888C316.387 435.888 318.682 435.169 320.632 433.681C332.397 424.71 343.607 414.737 353.949 404.039C366.56 390.995 377.83 376.915 387.448 362.19C390.703 357.21 389.302 350.536 384.323 347.283Z" fill="black"/>
<path d="M282.559 433.443L281.941 433.807C276.794 436.788 275.035 443.376 278.015 448.523C280.012 451.973 283.627 453.899 287.346 453.899C289.176 453.899 291.034 453.432 292.731 452.447L293.444 452.028C298.577 449.022 300.301 442.425 297.295 437.292C294.287 432.161 287.689 430.44 282.559 433.443Z" fill="black"/>
<path d="M182.59 234.02C175.977 227.406 167.182 223.766 157.828 223.766C148.474 223.766 139.678 227.407 133.062 234.02C119.409 247.676 119.409 269.896 133.062 283.551L196.658 347.145C203.272 353.757 212.067 357.398 221.422 357.398C230.777 357.398 239.572 353.757 246.187 347.143L378.948 214.381C392.6 200.722 392.6 178.505 378.946 164.854C372.332 158.24 363.537 154.6 354.181 154.6C344.826 154.6 336.031 158.241 329.416 164.854L221.421 272.849L182.59 234.02ZM344.648 180.086C347.193 177.541 350.58 176.14 354.182 176.14C357.786 176.14 361.17 177.541 363.717 180.086C368.972 185.341 368.972 193.895 363.715 199.152L230.956 331.912C228.411 334.457 225.024 335.858 221.422 335.858C217.82 335.858 214.433 334.457 211.887 331.912L148.293 268.32C143.036 263.063 143.036 254.509 148.291 249.254C150.837 246.709 154.224 245.306 157.827 245.306C161.43 245.306 164.815 246.707 167.36 249.252L213.805 295.698C215.826 297.717 218.564 298.852 221.421 298.852C224.278 298.852 227.016 297.718 229.035 295.698L344.648 180.086Z" fill="black"/>
</g>
<defs>
<clipPath id="clip0">
<rect width="512.001" height="512.001" fill="white"/>
</clipPath>
</defs>
</svg>
