<svg width="402" height="224" viewBox="0 0 402 224" fill="none" xmlns="http://www.w3.org/2000/svg">
<g clip-path="url(#clip0)">
<path d="M56.0164 182.231V170.201V129.299H0L39.541 167.795L0 206.291H95.5574V182.231H69.1967H56.0164Z" fill="url(#paint0_linear)"/>
<path d="M402 129.299H345.984V170.201V182.231H332.804H299.853V206.291H402L362.459 167.795L402 129.299Z" fill="url(#paint1_linear)"/>
<path d="M332.803 95.6147H69.1968V172.607H332.803V95.6147Z" fill="url(#paint2_linear)"/>
<path d="M118.637 139.316C118.637 140.865 118.07 142.084 116.935 142.973C115.801 143.847 114.352 144.284 112.588 144.284C111.193 144.284 109.844 143.901 108.54 143.134C107.896 142.736 107.367 142.176 106.953 141.455C106.539 140.719 106.332 139.884 106.332 138.948L109.23 138.81C109.23 139.638 109.583 140.282 110.288 140.742C110.994 141.202 111.776 141.432 112.634 141.432C114.551 141.432 115.509 140.758 115.509 139.408C115.509 138.304 114.858 137.653 113.554 137.453L110.886 137.177C109.552 136.978 108.494 136.503 107.712 135.751C106.93 135 106.539 133.919 106.539 132.508C106.539 131.098 107.099 129.932 108.218 129.012C109.338 128.092 110.748 127.632 112.45 127.632C114.168 127.632 115.548 128.069 116.59 128.943C117.633 129.802 118.154 130.914 118.154 132.278L115.302 132.416C115.042 131.082 114.145 130.415 112.611 130.415C111.676 130.415 110.94 130.615 110.403 131.013C109.882 131.412 109.621 131.887 109.621 132.439C109.621 132.976 109.813 133.405 110.196 133.727C110.58 134.034 111.055 134.226 111.622 134.302L114.244 134.578C117.173 134.977 118.637 136.556 118.637 139.316ZM126.568 144.146H124.705C123.57 144.146 122.704 143.809 122.106 143.134C121.523 142.46 121.232 141.655 121.232 140.719V133.819H119.967V131.542H121.232V128.966H124.222V131.542H126.338V133.819H124.222V140.535C124.222 141.256 124.567 141.616 125.257 141.616H126.568V144.146ZM138.081 144.146H136.08L135.16 142.559L131.963 144.284C130.184 144.284 128.988 143.64 128.375 142.352C128.068 141.724 127.854 141.049 127.731 140.328C127.624 139.592 127.57 138.833 127.57 138.051C127.57 137.254 127.578 136.671 127.593 136.303C127.608 135.92 127.647 135.483 127.708 134.992C127.769 134.486 127.854 134.065 127.961 133.727C128.084 133.39 128.252 133.045 128.467 132.692C128.682 132.324 128.942 132.033 129.249 131.818C129.939 131.343 130.836 131.105 131.94 131.105H135.091L138.081 130.921V144.146ZM135.091 139.96V133.796H132.814C131.971 133.796 131.38 134.118 131.043 134.762C130.721 135.406 130.56 136.372 130.56 137.66C130.56 138.933 130.713 139.83 131.02 140.351C131.342 140.873 131.94 141.133 132.814 141.133L135.091 139.96ZM151.517 144.146H148.527V135.751C148.527 135 148.374 134.486 148.067 134.21C147.761 133.934 147.331 133.796 146.779 133.796L144.088 134.923V144.146H141.098V131.013H143.329L144.019 132.577L147.699 130.875C148.727 130.875 149.616 131.259 150.367 132.025C151.134 132.777 151.517 133.881 151.517 135.337V144.146ZM164.058 144.146H162.057L161.137 142.559L157.94 144.284C156.161 144.284 154.965 143.64 154.352 142.352C154.045 141.724 153.83 141.049 153.708 140.328C153.6 139.592 153.547 138.833 153.547 138.051C153.547 137.254 153.554 136.671 153.57 136.303C153.585 135.92 153.623 135.483 153.685 134.992C153.746 134.486 153.83 134.065 153.938 133.727C154.06 133.39 154.229 133.045 154.444 132.692C154.658 132.324 154.919 132.033 155.226 131.818C155.916 131.343 156.813 131.105 157.917 131.105H161.068V126.85H164.058V144.146ZM161.068 139.96V133.796H158.791C157.947 133.796 157.357 134.118 157.02 134.762C156.698 135.406 156.537 136.372 156.537 137.66C156.537 138.933 156.69 139.83 156.997 140.351C157.319 140.873 157.917 141.133 158.791 141.133L161.068 139.96ZM176.444 144.146H174.443L173.523 142.559L170.326 144.284C168.548 144.284 167.352 143.64 166.738 142.352C166.432 141.724 166.217 141.049 166.094 140.328C165.987 139.592 165.933 138.833 165.933 138.051C165.933 137.254 165.941 136.671 165.956 136.303C165.972 135.92 166.01 135.483 166.071 134.992C166.133 134.486 166.217 134.065 166.324 133.727C166.447 133.39 166.616 133.045 166.83 132.692C167.045 132.324 167.306 132.033 167.612 131.818C168.302 131.343 169.199 131.105 170.303 131.105H173.454L176.444 130.921V144.146ZM173.454 139.96V133.796H171.177C170.334 133.796 169.744 134.118 169.406 134.762C169.084 135.406 168.923 136.372 168.923 137.66C168.923 138.933 169.077 139.83 169.383 140.351C169.705 140.873 170.303 141.133 171.177 141.133L173.454 139.96ZM186.66 131.059L185.832 134.003C185.602 133.911 185.342 133.865 185.05 133.865C184.284 133.865 183.341 134.195 182.221 134.854V144.146H179.231V131.013H181.462L182.152 132.163L185.326 130.852C185.48 130.837 185.687 130.829 185.947 130.829C186.208 130.829 186.446 130.906 186.66 131.059ZM198.198 144.146H196.197L195.277 142.559L192.08 144.284C190.302 144.284 189.106 143.64 188.492 142.352C188.186 141.724 187.971 141.049 187.848 140.328C187.741 139.592 187.687 138.833 187.687 138.051C187.687 137.254 187.695 136.671 187.71 136.303C187.726 135.92 187.764 135.483 187.825 134.992C187.887 134.486 187.971 134.065 188.078 133.727C188.201 133.39 188.37 133.045 188.584 132.692C188.799 132.324 189.06 132.033 189.366 131.818C190.056 131.343 190.953 131.105 192.057 131.105H195.208V126.85H198.198V144.146ZM195.208 139.96V133.796H192.931C192.088 133.796 191.498 134.118 191.16 134.762C190.838 135.406 190.677 136.372 190.677 137.66C190.677 138.933 190.831 139.83 191.137 140.351C191.459 140.873 192.057 141.133 192.931 141.133L195.208 139.96ZM219.22 134.371L216.276 140.581C215.846 141.409 215.31 141.823 214.666 141.823C214.037 141.823 213.508 141.386 213.079 140.512L210.089 134.371V144.146H206.892V127.77H210.043L214.666 137.223L219.266 127.77H222.417V144.146H219.22V134.371ZM235.378 138.281H227.719C227.719 139.477 227.903 140.351 228.271 140.903C228.655 141.455 229.414 141.731 230.548 141.731C231.284 141.731 231.829 141.501 232.181 141.041C232.534 140.566 232.71 140.114 232.71 139.684H235.401C235.401 141.325 234.957 142.529 234.067 143.295C233.193 144.062 232.028 144.445 230.571 144.445C229.13 144.445 228.011 144.238 227.213 143.824C225.573 142.981 224.752 140.742 224.752 137.108C224.752 134.946 225.22 133.367 226.155 132.37C227.091 131.358 228.517 130.852 230.433 130.852C233.761 130.852 235.424 132.7 235.424 136.395C235.424 136.794 235.409 137.423 235.378 138.281ZM227.788 136.234H232.71C232.71 135.222 232.519 134.486 232.135 134.026C231.752 133.566 231.162 133.336 230.364 133.336C229.582 133.336 228.954 133.574 228.478 134.049C228.018 134.509 227.788 135.238 227.788 136.234ZM255.063 144.146H252.073V135.981C252.073 135.169 251.973 134.601 251.774 134.279C251.59 133.957 251.26 133.796 250.785 133.796L248.094 134.923V144.146H245.104V135.981C245.104 134.525 244.598 133.796 243.586 133.796L241.125 134.923V144.146H238.135V131.013H240.366L241.056 132.577L244.506 130.875C245.702 130.875 246.606 131.458 247.22 132.623L251.498 130.875C252.694 130.875 253.583 131.282 254.166 132.094C254.764 132.892 255.063 133.973 255.063 135.337V144.146ZM263.894 144.169L261.295 144.146C260.145 144.146 259.271 143.809 258.673 143.134C258.091 142.46 257.799 141.655 257.799 140.719V126.85H260.789V132.646L264.354 130.99C265.719 130.99 266.723 131.358 267.367 132.094C267.935 132.754 268.287 133.819 268.425 135.291C268.471 135.905 268.494 136.664 268.494 137.568C268.494 141.969 266.961 144.169 263.894 144.169ZM261.548 141.593H263.02C264.676 141.593 265.504 140.252 265.504 137.568C265.504 136.204 265.374 135.253 265.113 134.716C264.868 134.18 264.324 133.911 263.48 133.911L260.789 135.36V140.535C260.789 141.149 261.042 141.501 261.548 141.593ZM280.996 138.281H273.337C273.337 139.477 273.521 140.351 273.889 140.903C274.273 141.455 275.032 141.731 276.166 141.731C276.902 141.731 277.447 141.501 277.799 141.041C278.152 140.566 278.328 140.114 278.328 139.684H281.019C281.019 141.325 280.575 142.529 279.685 143.295C278.811 144.062 277.646 144.445 276.189 144.445C274.748 144.445 273.629 144.238 272.831 143.824C271.191 142.981 270.37 140.742 270.37 137.108C270.37 134.946 270.838 133.367 271.773 132.37C272.709 131.358 274.135 130.852 276.051 130.852C279.379 130.852 281.042 132.7 281.042 136.395C281.042 136.794 281.027 137.423 280.996 138.281ZM273.406 136.234H278.328C278.328 135.222 278.137 134.486 277.753 134.026C277.37 133.566 276.78 133.336 275.982 133.336C275.2 133.336 274.572 133.574 274.096 134.049C273.636 134.509 273.406 135.238 273.406 136.234ZM290.722 131.059L289.894 134.003C289.664 133.911 289.403 133.865 289.112 133.865C288.345 133.865 287.402 134.195 286.283 134.854V144.146H283.293V131.013H285.524L286.214 132.163L289.388 130.852C289.541 130.837 289.748 130.829 290.009 130.829C290.27 130.829 290.507 130.906 290.722 131.059Z" fill="black"/>
<path d="M201.211 18L210.327 32.6112L227.09 36.736L215.962 49.8911L217.205 67.0516L201.211 60.5706L185.217 67.0516L186.46 49.8911L175.332 36.736L192.094 32.6112L201.211 18Z" fill="url(#paint3_linear)"/>
</g>
<defs>
<linearGradient id="paint0_linear" x1="-1.29605" y1="71.9959" x2="31.2887" y2="227.251" gradientUnits="userSpaceOnUse">
<stop stop-color="#BF7E00"/>
<stop offset="1" stop-color="#AB7C00"/>
</linearGradient>
<linearGradient id="paint1_linear" x1="298.467" y1="71.9959" x2="329.111" y2="228.073" gradientUnits="userSpaceOnUse">
<stop stop-color="#BF7E00"/>
<stop offset="1" stop-color="#AB7C00"/>
</linearGradient>
<linearGradient id="paint2_linear" x1="65.6215" y1="38.3116" x2="77.8828" y2="199.472" gradientUnits="userSpaceOnUse">
<stop stop-color="#BF7E00"/>
<stop offset="1" stop-color="#AB7C00"/>
</linearGradient>
<linearGradient id="paint3_linear" x1="173.262" y1="-22.3619" x2="201.027" y2="84.6029" gradientUnits="userSpaceOnUse">
<stop stop-color="#BF7E00"/>
<stop offset="1" stop-color="#AB7C00"/>
</linearGradient>
<clipPath id="clip0">
<rect width="402" height="224" fill="white"/>
</clipPath>
</defs>
</svg>
