<svg width="511" height="511" viewBox="0 0 511 511" fill="none" xmlns="http://www.w3.org/2000/svg">
<g clip-path="url(#clip0)">
<path d="M472.946 409.329L467.247 401.871C463.878 397.457 457.57 396.611 453.157 399.984C448.748 403.356 447.902 409.664 451.274 414.073L456.97 421.535C470.849 439.703 468.377 465.251 451.34 479.703C450.943 480.038 450.541 480.366 450.132 480.689C441.149 487.777 429.941 490.935 418.58 489.594C407.216 488.249 397.06 482.564 390.015 473.629L295.442 352.132C321.399 339.138 343.921 320.268 361.247 297.27L402.377 350.081L404.826 353.286C406.806 355.875 409.796 357.235 412.822 357.235C414.95 357.235 417.095 356.561 418.915 355.169C423.329 351.797 424.171 345.493 420.798 341.079L418.292 337.801L373.009 279.653C389.309 251.972 398.678 219.746 398.678 185.368C398.678 82.6041 315.075 -0.998047 212.315 -0.998047C109.551 -0.998047 25.9492 82.6041 25.9492 185.368C25.9492 245.906 55.532 302.896 105.084 337.812C111.926 342.631 119.154 347.029 126.573 350.877C137.189 356.389 148.382 360.884 159.848 364.241C176.818 369.212 194.467 371.734 212.315 371.734C234.818 371.734 256.401 367.723 276.389 360.381L374.19 486.026C384.6 499.227 399.527 507.586 416.221 509.559C418.732 509.855 421.243 510.003 423.734 510.003C437.796 509.999 451.368 505.317 462.58 496.479C463.18 496.003 463.769 495.52 464.346 495.032C489.551 473.656 493.328 436.011 472.946 409.329V409.329ZM165.497 344.951C155.278 341.956 145.298 337.949 135.832 333.036C129.216 329.602 122.764 325.68 116.663 321.376C72.4482 290.222 46.0505 239.376 46.0505 185.368C46.0505 93.6918 120.635 19.1072 212.315 19.1072C303.992 19.1072 378.576 93.6918 378.576 185.368C378.576 277.044 303.992 351.629 212.315 351.629C196.382 351.629 180.631 349.383 165.497 344.951V344.951Z" fill="black"/>
<path d="M212.366 49.9492C195.57 49.9492 179.184 53.0018 163.66 59.0252C158.486 61.033 155.917 66.8537 157.925 72.031C159.933 77.2084 165.757 79.7737 170.931 77.7659C184.128 72.647 198.069 70.0544 212.366 70.0544C275.566 70.0544 326.985 121.47 326.985 184.674C326.985 247.875 275.566 299.294 212.366 299.294C149.161 299.294 97.742 247.875 97.742 184.674C97.742 163.575 103.52 142.955 114.451 125.045C117.344 120.308 115.851 114.121 111.11 111.228C106.37 108.335 100.186 109.832 97.2936 114.573C84.4359 135.633 77.6406 159.875 77.6406 184.674C77.6406 258.959 138.077 319.399 212.366 319.399C286.65 319.399 347.09 258.962 347.09 184.674C347.09 110.386 286.65 49.9492 212.366 49.9492V49.9492Z" fill="black"/>
<path d="M427.222 383.972C428.805 387.882 432.567 390.252 436.544 390.252C437.799 390.252 439.074 390.015 440.31 389.516C445.456 387.434 447.939 381.574 445.857 376.428L445.491 375.527C443.409 370.381 437.549 367.898 432.403 369.98C427.257 372.061 424.774 377.925 426.856 383.067L427.222 383.972Z" fill="black"/>
<path d="M123.079 92.7799C124.662 96.6902 128.424 99.0645 132.397 99.0645C133.656 99.0645 134.931 98.8267 136.167 98.3276C141.313 96.2458 143.797 90.3822 141.715 85.2399L141.348 84.3355C139.267 79.1893 133.403 76.7097 128.261 78.7916C123.114 80.8735 120.631 86.7331 122.713 91.8793L123.079 92.7799Z" fill="black"/>
<path d="M123.758 189.98C125.239 192.436 160.662 250.198 211.656 250.366H211.879C262.81 250.366 298.155 192.428 299.637 189.956C301.547 186.771 301.543 182.791 299.629 179.606C298.144 177.138 262.713 119.208 211.691 119.208C160.666 119.208 125.235 177.142 123.75 179.606C121.832 182.799 121.832 186.791 123.758 189.98V189.98ZM211.691 139.313C243.613 139.313 269.808 171.886 278.939 184.795C269.828 197.715 243.711 230.264 211.879 230.264C211.828 230.264 211.773 230.264 211.723 230.264C179.793 230.159 153.598 197.676 144.452 184.779C153.594 171.855 179.781 139.313 211.691 139.313Z" fill="black"/>
<path d="M211.692 217.426C229.688 217.426 244.327 202.783 244.327 184.787C244.327 166.791 229.688 152.151 211.692 152.151C193.692 152.151 179.053 166.791 179.053 184.787C179.053 202.783 193.696 217.426 211.692 217.426ZM211.692 172.253C218.6 172.253 224.226 177.878 224.226 184.787C224.226 191.699 218.6 197.321 211.692 197.321C204.78 197.321 199.158 191.699 199.158 184.787C199.158 177.878 204.78 172.253 211.692 172.253Z" fill="black"/>
</g>
<defs>
<clipPath id="clip0">
<rect width="511" height="511" fill="white"/>
</clipPath>
</defs>
</svg>
