<svg width="512" height="512" viewBox="0 0 512 512" fill="none" xmlns="http://www.w3.org/2000/svg">
<path d="M473.23 140.198C468.259 142.604 466.179 148.584 468.584 153.555C484.121 185.662 491.999 220.128 491.999 256C491.999 386.131 386.13 492 255.999 492C204.99 492 155.061 475.24 114.357 444.64C119.673 433.489 117.727 419.713 108.506 410.493C96.8094 398.797 77.7774 398.797 66.0794 410.493C54.3824 422.19 54.3824 441.222 66.0794 452.92C75.1284 461.969 88.7614 464.14 100.033 458.866C144.603 493.173 199.693 512 255.999 512C397.158 512 511.999 397.159 511.999 256C511.999 217.086 503.449 179.688 486.587 144.844C484.182 139.873 478.203 137.793 473.23 140.198Z" fill="#F05454"/>
<path d="M36.25 366.966C41.274 364.672 43.486 358.739 41.191 353.716C27.129 322.933 20 290.056 20 256C20 125.869 125.869 20 256 20C306.208 20 353.714 35.427 394.073 64.713C387.058 76.255 388.526 91.542 398.492 101.508C410.19 113.205 429.221 113.205 440.919 101.508C452.616 89.811 452.616 70.779 440.919 59.081C432.642 50.804 420.694 48.393 410.269 51.829C365.864 18.187 312.065 0 256 0C114.841 0 0 114.841 0 256C0 292.944 7.738 328.616 22.999 362.025C25.282 367.024 31.202 369.272 36.25 366.966V366.966Z" fill="#F05454"/>
<path d="M256 66C158.194 66 66 143.686 66 256C66 360.031 150.499 446 256 446C361.48 446 446 360.083 446 256C446 151.969 361.501 66 256 66ZM202.476 94.64C181.811 119.205 169.305 154.265 162.833 186H101.088C120.556 143.089 157.346 109.649 202.476 94.64ZM86 256C86 238.606 88.631 221.815 93.508 206L159.407 205.99C157.161 222.086 156 238.88 156 256C156 273.12 157.161 289.904 159.407 306H93.508C88.631 290.185 86 273.394 86 256V256ZM101.089 326H162.834C169.304 357.728 181.809 392.792 202.477 417.36C157.346 402.351 120.556 368.911 101.089 326ZM246 424.611C218.48 416.939 194.827 378.163 183.37 326H246V424.611ZM246 306H179.681C177.293 290.119 176 273.312 176 256C176 238.688 177.294 221.881 179.681 206H246V306ZM246 186H183.37C194.827 133.836 218.48 95.061 246 87.389V186ZM266 87.389C293.52 95.061 317.173 133.837 328.63 186H266V87.389ZM266 206H332.319C334.707 221.881 336 238.688 336 256C336 273.312 334.706 290.119 332.319 306H266V206ZM266 424.611V325.99L328.63 326C317.173 378.164 293.52 416.939 266 424.611ZM309.524 417.36C330.198 392.785 342.7 357.715 349.167 325.99H410.912C391.444 368.911 354.654 402.351 309.524 417.36ZM426 256C426 273.394 423.369 290.185 418.492 306H352.593C354.839 289.904 356 273.12 356 256C356 238.88 354.839 222.096 352.593 206H418.492C423.369 221.815 426 238.606 426 256ZM349.166 186C342.696 154.272 330.191 119.208 309.523 94.64C354.653 109.649 391.444 143.089 410.91 186H349.166Z" fill="#F05454"/>
</svg>
